<?xml version="1.0" standalone="no"?>
<!DOCTYPE svg PUBLIC "-//W3C//DTD SVG 20010904//EN"
 "http://www.w3.org/TR/2001/REC-SVG-20010904/DTD/svg10.dtd">
<svg version="1.0" xmlns="http://www.w3.org/2000/svg"
 width="1381.000000pt" height="1381.000000pt" viewBox="0 0 1381.000000 1381.000000"
 preserveAspectRatio="xMidYMid meet">
<metadata>
Created by potrace 1.11, written by Peter Selinger 2001-2013
</metadata>
<g transform="translate(0.000000,1381.000000) scale(0.100000,-0.100000)"
fill="#000000" stroke="none">
<path d="M10911 13718 c-28 -23 -73 -73 -100 -112 -61 -89 -228 -275 -307
-342 -205 -175 -354 -266 -889 -539 -115 -59 -214 -111 -219 -116 -18 -17 -22
-9 -20 34 13 281 15 373 15 495 0 80 -5 151 -11 162 -16 30 -67 52 -100 45
-42 -9 -103 -80 -97 -112 10 -55 -100 -263 -207 -389 -36 -44 -169 -146 -266
-205 -96 -60 -228 -129 -245 -129 -7 0 -23 -8 -36 -19 -13 -10 -42 -24 -64
-31 -22 -7 -49 -18 -60 -25 -11 -6 -33 -15 -50 -19 -16 -4 -48 -15 -70 -26
-42 -19 -139 -51 -215 -70 -25 -6 -54 -15 -65 -20 -11 -5 -69 -21 -130 -35
-60 -15 -130 -33 -155 -40 -25 -8 -79 -23 -120 -35 -145 -40 -281 -90 -412
-149 -67 -31 -69 -31 -240 -31 -414 0 -705 -44 -1068 -162 -147 -48 -163 -51
-310 -59 -164 -10 -432 -46 -590 -80 -163 -34 -153 -34 -172 -2 -30 51 -241
257 -368 358 -215 173 -404 307 -605 428 -128 78 -478 256 -585 297 -171 67
-288 125 -327 163 -39 38 -44 40 -67 28 -21 -12 -33 -10 -100 18 -42 17 -111
45 -154 62 -42 16 -101 41 -130 55 -29 13 -57 24 -62 24 -16 0 -274 126 -364
177 -126 73 -257 161 -301 203 -22 21 -52 42 -67 45 -40 10 -91 -19 -118 -66
-19 -35 -21 -46 -12 -78 6 -20 13 -60 17 -90 4 -29 32 -126 62 -215 51 -151
73 -221 108 -356 8 -30 29 -136 45 -235 40 -233 159 -829 210 -1048 22 -95 40
-178 40 -186 0 -7 -21 -39 -48 -70 -105 -125 -162 -212 -162 -248 0 -13 20
-39 52 -66 l52 -44 -16 -34 c-53 -115 -62 -140 -66 -191 -5 -64 14 -106 70
-153 l31 -26 -18 -87 c-18 -90 -22 -170 -10 -222 5 -22 40 -61 128 -141 102
-93 125 -119 141 -161 12 -35 37 -68 75 -105 56 -54 148 -113 175 -113 11 0
-2 -34 -44 -112 -123 -236 -313 -700 -417 -1018 -159 -489 -333 -1272 -409
-1835 -21 -161 -38 -252 -114 -640 -176 -890 -240 -1386 -271 -2075 -13 -304
-13 -434 1 -720 30 -644 103 -1070 249 -1461 76 -204 190 -421 299 -569 63
-86 288 -313 377 -381 173 -132 299 -204 472 -270 143 -53 234 -76 373 -94 63
-9 129 -18 147 -21 21 -4 39 -1 55 10 12 9 32 16 43 16 38 0 66 29 63 63 -4
37 -40 59 -150 88 -93 25 -116 39 -184 111 -227 243 -434 574 -582 930 -41 99
-116 318 -110 324 2 1 42 -50 88 -114 113 -154 250 -287 404 -392 98 -66 635
-588 720 -700 46 -59 146 -222 189 -307 15 -29 31 -82 36 -119 10 -71 20 -88
62 -110 40 -20 63 -18 97 11 54 45 50 130 -16 331 -16 49 -37 116 -47 149 -15
48 -79 208 -144 360 -5 11 -15 36 -22 55 -7 19 -40 82 -72 140 -32 58 -72 137
-88 175 -16 39 -34 77 -40 85 -35 54 -95 198 -150 360 -32 92 -31 92 33 9 114
-150 175 -218 347 -390 364 -364 598 -514 981 -630 52 -15 70 -17 92 -8 43 18
45 45 6 88 -73 77 -161 201 -204 283 -47 91 -92 295 -114 515 -18 184 -21 483
-5 523 7 19 14 30 14 24 1 -6 26 -44 58 -85 31 -41 77 -101 102 -134 223 -291
558 -634 841 -859 140 -112 179 -136 217 -136 53 0 84 63 45 92 -31 24 -112
148 -112 173 0 3 60 -44 133 -104 273 -224 606 -437 899 -575 64 -30 125 -64
135 -74 27 -29 94 -62 125 -62 28 0 68 30 68 50 0 18 -33 63 -85 116 -27 28
-60 70 -71 95 -12 24 -29 60 -38 79 -11 22 -13 36 -6 38 21 7 168 107 259 176
198 148 408 361 552 556 72 97 214 315 264 405 77 137 106 191 124 230 10 22
39 83 63 135 25 52 48 102 52 110 10 25 -3 -314 -20 -470 -29 -282 -60 -497
-90 -615 -65 -260 -223 -544 -314 -568 -77 -19 -102 -80 -49 -119 83 -62 411
5 672 138 210 108 472 303 689 514 67 66 123 118 124 117 2 -2 -66 -250 -97
-352 -118 -392 -252 -710 -395 -941 -24 -39 -44 -80 -44 -92 0 -62 56 -100
103 -69 23 15 93 90 228 245 89 102 324 304 569 490 19 14 57 44 83 65 26 22
49 38 51 36 2 -2 1 -47 -3 -99 -9 -121 6 -324 26 -365 26 -52 54 -75 90 -75
43 0 57 23 78 125 8 44 25 109 36 145 20 62 139 301 178 358 10 15 35 54 56
87 117 188 278 387 471 585 94 96 202 213 240 260 74 90 243 334 301 435 l35
60 -6 -120 c-26 -504 -165 -999 -301 -1070 -49 -25 -57 -56 -24 -91 25 -26 75
-31 139 -14 19 5 78 21 130 35 217 58 416 184 722 459 104 92 240 252 322 374
26 40 49 72 51 72 9 0 -40 -154 -74 -230 -54 -125 -113 -219 -165 -268 -25
-24 -46 -49 -46 -57 0 -7 14 -25 32 -40 40 -34 84 -29 143 14 22 17 66 48 97
71 103 73 243 227 345 380 90 134 110 168 156 262 171 351 233 582 256 958 12
196 -21 626 -68 893 -10 54 -19 153 -20 220 -10 547 -205 1643 -516 2902 -82
329 -228 865 -302 1105 -19 63 -39 131 -45 150 -18 66 -150 465 -200 605 -205
577 -367 925 -501 1071 l-29 32 16 123 c22 175 38 546 34 799 -5 362 -2 1285
6 1470 4 96 6 182 5 190 -5 50 -5 521 0 600 6 92 0 234 -15 332 -5 38 -13 53
-40 73 -46 35 -73 32 -133 -17z m46 -923 c-7 -418 -10 -1047 -8 -1397 3 -608
0 -740 -19 -693 -6 13 -9 0 -9 -40 0 -42 3 -54 9 -40 12 28 12 -46 0 -225 -20
-286 -54 -487 -106 -617 -19 -46 -23 -68 -15 -76 7 -7 16 -5 31 8 19 18 20 18
20 -4 0 -29 43 -71 72 -71 53 0 92 54 133 183 l22 69 58 -129 c396 -879 836
-2416 1153 -4033 125 -633 228 -1355 203 -1422 -8 -22 13 -237 28 -288 16 -53
39 -283 52 -503 22 -394 -19 -718 -127 -1009 -113 -305 -267 -571 -437 -753
l-56 -60 44 90 c98 202 134 361 142 640 5 160 9 194 38 310 50 195 69 367 62
560 -6 171 -15 225 -48 292 -29 61 -43 55 -35 -14 4 -32 9 -132 12 -223 12
-333 -48 -646 -183 -959 -160 -370 -397 -664 -730 -903 -122 -88 -297 -175
-405 -202 l-27 -6 49 102 c157 326 231 913 160 1272 l-21 110 40 125 c101 316
166 660 190 1001 25 346 33 599 28 830 -21 838 -43 1105 -138 1650 -128 739
-384 1734 -565 2200 -80 206 -126 282 -156 252 -9 -9 0 -40 41 -144 196 -488
490 -1632 620 -2413 99 -592 128 -978 125 -1685 -1 -314 -29 -717 -58 -860 -8
-36 -12 -77 -9 -92 7 -35 -40 -288 -94 -503 -47 -188 -124 -437 -130 -419 -2
5 7 41 20 79 21 64 22 82 17 215 l-6 145 -2 -157 c-1 -89 -7 -169 -13 -185
-34 -83 -79 -221 -79 -239 0 -49 -162 -336 -232 -410 -15 -17 -30 -41 -33 -53
-7 -37 -107 -155 -290 -341 -95 -96 -201 -209 -236 -250 -167 -194 -334 -439
-434 -635 -58 -114 -64 -122 -60 -83 15 136 27 235 40 328 8 58 18 127 21 153
3 27 7 47 10 45 5 -6 -10 -146 -30 -283 -8 -55 -17 -127 -20 -160 -6 -57 -6
-59 8 -29 7 17 12 42 9 56 -10 52 24 166 71 240 25 40 51 79 57 87 7 7 14 36
17 63 6 58 -4 68 -57 62 -31 -3 -32 -2 -11 5 23 8 23 9 3 10 -12 1 -30 4 -40
7 -15 5 -15 4 -3 -5 8 -6 12 -11 7 -11 -10 0 -50 23 -60 35 -5 6 -7 3 -3 -7 3
-10 1 -20 -4 -23 -5 -3 -7 -12 -4 -19 3 -8 1 -17 -4 -20 -6 -3 -18 -49 -28
-102 -17 -89 -20 -97 -55 -125 -46 -37 -60 -37 -28 -1 l24 27 -27 -24 c-15
-13 -25 -27 -23 -32 3 -4 -77 -72 -177 -151 -231 -181 -390 -313 -497 -414
-83 -77 -84 -78 -59 -34 110 190 292 721 397 1160 128 534 240 1328 297 2109
6 88 10 101 66 215 203 410 364 881 414 1208 17 109 17 110 -4 130 -29 29 -52
10 -52 -43 0 -82 -86 -420 -168 -659 -177 -518 -472 -1071 -729 -1368 -30 -34
-58 -60 -63 -57 -4 3 -14 -3 -21 -13 -13 -15 -12 -16 4 -3 9 7 17 9 17 5 0
-10 -186 -196 -238 -237 -19 -15 -39 -24 -44 -21 -7 4 -8 2 -4 -4 9 -15 -99
-96 -115 -86 -7 4 -9 3 -5 -4 4 -6 -13 -24 -38 -41 -49 -34 -65 -39 -46 -16
21 25 -5 17 -30 -10 -13 -14 -19 -25 -14 -25 11 0 -108 -79 -119 -80 -5 0 5
17 21 37 44 57 172 255 237 367 308 537 563 1286 692 2031 22 128 27 193 33
445 3 162 7 284 9 270 l2 -25 11 25 c6 14 18 50 27 82 l16 56 135 95 c158 110
177 121 248 136 65 13 112 37 112 55 0 11 -27 13 -148 8 -92 -3 -180 0 -235 8
l-87 12 0 52 c0 28 -3 88 -7 133 -6 89 -8 85 50 97 47 11 34 36 -19 36 -25 0
-43 4 -40 8 3 4 -2 74 -9 154 -33 344 -111 780 -216 1204 -50 204 -59 254 -59
331 0 86 -1 92 -31 129 -17 22 -38 53 -45 71 -19 44 -18 137 2 175 11 22 14
45 10 77 -10 72 -89 379 -177 688 l-81 283 47 44 c43 41 49 44 78 34 93 -28
144 -40 267 -58 159 -23 265 -25 340 -6 52 14 56 13 102 -10 26 -13 58 -24 70
-24 15 -1 30 -12 43 -33 44 -70 140 -99 212 -63 15 8 60 23 100 33 l72 20 58
-29 c88 -43 131 -37 202 28 39 34 56 63 29 48 -10 -6 -10 -4 -1 6 18 20 109
13 157 -12 45 -23 101 -20 142 7 34 22 65 94 72 167 4 47 10 62 28 74 69 46
73 187 6 247 -20 18 -20 19 -1 63 28 63 49 167 49 247 0 52 5 74 20 95 19 25
20 33 9 82 -6 30 -18 68 -26 84 -9 16 -16 48 -18 71 -3 42 -33 113 -58 133
-12 10 -11 19 9 61 44 91 78 343 55 404 -10 25 -8 33 14 59 42 49 45 110 11
179 -22 45 -11 128 20 139 29 11 47 45 40 75 -8 32 -90 134 -137 172 -35 28
-140 69 -222 87 l-27 6 59 89 c125 185 209 342 310 578 67 157 131 351 131
397 0 43 -16 66 -25 37 -4 -13 -9 -21 -11 -18 -2 2 10 43 26 92 32 95 37 130
19 141 -14 9 -41 -26 -59 -75 -16 -44 -158 -333 -168 -341 -9 -6 -21 -28 -83
-147 -117 -224 -351 -526 -669 -861 -178 -189 -302 -307 -690 -662 -135 -123
-262 -239 -284 -259 l-38 -36 34 70 c43 87 120 286 147 380 77 272 172 778
173 920 1 25 -10 19 413 237 478 246 638 347 867 552 97 86 319 328 361 391
l22 34 7 -32 c4 -18 2 -374 -5 -792z m-9172 495 c3 0 31 -18 63 -39 88 -60
392 -207 645 -311 181 -75 227 -98 227 -113 0 -10 -5 -15 -10 -12 -21 13 -63
-28 -90 -89 -90 -199 -140 -498 -140 -843 0 -496 66 -873 196 -1125 13 -25 15
-47 10 -99 -6 -72 -45 -231 -71 -292 -18 -43 -81 -92 -137 -108 -46 -12 -47
-9 20 -122 26 -44 66 -96 90 -116 23 -19 42 -41 42 -48 0 -20 -7 -16 -48 28
-52 59 -94 123 -157 242 -205 389 -364 980 -595 2212 -72 381 -80 414 -180
720 -33 99 -62 200 -66 224 l-7 44 101 -76 c56 -43 104 -77 107 -77z m7455
-570 c-16 -242 -21 -304 -27 -310 -3 -3 -2 43 2 103 4 59 4 163 0 231 l-7 123
-126 -127 c-332 -333 -615 -472 -1372 -674 -176 -46 -370 -88 -386 -82 -6 2
-31 -2 -54 -10 -23 -8 -48 -13 -54 -11 -21 8 336 118 589 182 264 66 503 153
717 261 135 68 143 71 132 52 -4 -7 -3 -8 5 -4 6 4 9 11 6 16 -3 4 22 24 56
44 68 40 86 46 49 15 l-25 -21 25 14 c14 9 25 21 25 28 0 8 6 15 14 18 9 3 11
0 6 -8 -5 -9 -4 -11 4 -6 6 4 9 11 6 16 -3 5 8 18 24 29 31 23 46 27 36 11
-10 -16 1 -11 16 7 12 15 12 16 -1 8 -9 -5 -8 0 4 13 23 26 44 30 25 5 -11
-16 -11 -16 1 -5 8 7 15 17 15 21 0 11 161 162 167 156 2 -3 15 7 29 22 22 25
22 26 2 9 -32 -27 -28 -11 8 35 17 22 36 36 41 33 7 -4 8 -2 4 4 -3 6 6 33 21
61 l28 50 3 -67 c2 -37 -2 -146 -8 -242z m-6149 -34 c251 -110 430 -198 589
-291 234 -137 556 -369 716 -516 87 -81 194 -194 194 -206 0 -5 -32 -26 -71
-48 -39 -21 -89 -57 -112 -78 l-42 -39 -110 28 c-268 67 -501 167 -649 278
-163 123 -387 394 -568 686 -70 113 -167 280 -164 280 2 0 100 -42 217 -94z
m-80 -273 c54 -87 163 -234 253 -343 38 -47 59 -76 47 -65 -21 18 -67 70 -172
195 -45 53 -49 59 -49 66 0 4 -15 27 -33 53 -38 53 -101 161 -94 161 3 0 24
-30 48 -67z m7237 -439 c88 -18 215 -65 251 -93 l24 -18 -67 -13 c-44 -8 -78
-21 -97 -38 l-30 -25 23 -24 c13 -14 44 -36 70 -49 50 -25 81 -60 121 -136 27
-51 27 -54 -4 -37 -15 8 -24 7 -35 -2 -13 -10 -13 -14 1 -29 21 -23 60 -141
85 -258 28 -125 21 -218 -15 -232 -13 -5 -31 -20 -40 -34 -16 -24 -15 -28 10
-83 14 -32 48 -92 75 -133 51 -78 66 -119 56 -146 -3 -9 -8 -64 -11 -122 -4
-100 -34 -255 -53 -274 -5 -5 -26 -10 -47 -12 -40 -3 -75 -33 -75 -65 0 -29
-58 -190 -82 -229 -30 -49 -166 -212 -177 -212 -5 0 -14 7 -21 15 -19 23 -46
19 -201 -35 -174 -60 -250 -67 -305 -25 -30 23 -31 27 -23 62 18 82 -7 98
-130 82 -103 -13 -291 3 -291 25 0 25 -48 36 -199 46 -157 11 -273 30 -320 53
-23 11 -25 17 -22 60 2 37 -3 57 -22 90 -36 59 -162 181 -180 174 -11 -4 -17
4 -22 31 -4 20 -15 48 -24 62 -39 55 -39 54 98 189 70 69 160 169 199 222 76
103 200 224 597 585 237 215 482 449 594 566 39 42 73 68 90 71 59 9 126 6
199 -9z m-3358 -88 c0 -3 -34 -25 -75 -50 -41 -25 -133 -87 -203 -137 -70 -51
-121 -85 -114 -76 11 13 4 12 -40 -5 -180 -68 -479 -306 -618 -493 -21 -27
-53 -58 -73 -68 l-35 -19 -73 35 c-41 20 -94 41 -118 48 -49 15 -63 31 -91
114 -23 67 -25 139 -8 266 l11 88 96 44 c121 57 202 86 366 130 221 61 483
107 690 120 82 5 285 7 285 3z m-1649 -247 c-16 -6 -28 -6 -35 1 -7 7 1 10 25
9 32 0 33 -1 10 -10z m-73 -6 c-10 -2 -26 -2 -35 0 -10 3 -2 5 17 5 19 0 27
-2 18 -5z m-133 -20 c-53 -11 -292 -78 -391 -109 -131 -40 -177 -44 -84 -7 77
30 434 123 470 121 20 0 21 -1 5 -5z m1845 -293 c-17 -22 -36 -37 -41 -34 -5
3 -26 -11 -47 -32 -20 -20 -73 -59 -117 -86 -44 -26 -69 -39 -55 -27 14 11 40
34 58 50 19 16 71 54 117 84 46 31 88 62 95 70 28 34 19 12 -10 -25z m-1911
-30 c40 -12 93 -34 116 -50 36 -25 107 -116 139 -180 12 -24 -31 30 -68 86
-44 65 -99 102 -200 136 -97 32 -90 36 13 8z m-2911 -240 c138 -530 304 -902
479 -1078 29 -29 53 -56 53 -58 0 -3 -13 -25 -30 -49 -31 -46 -83 -72 -119
-60 -11 3 -22 1 -26 -5 -3 -6 -25 -20 -47 -31 l-41 -21 -41 29 c-46 32 -86
101 -86 149 0 36 -20 57 -73 74 -21 6 -60 34 -90 64 -28 29 -61 58 -72 64 -18
9 -20 21 -20 99 1 48 5 131 9 184 l9 96 -34 21 c-19 11 -42 35 -52 52 -18 29
-18 33 -1 83 9 28 36 91 60 139 24 48 44 94 44 102 0 20 -44 53 -80 61 -37 8
-44 19 -29 47 13 26 141 199 145 195 1 -1 20 -72 42 -157z m3586 -190 c42 -10
84 -24 94 -30 15 -10 15 -11 -3 -7 -11 3 -29 8 -40 11 -11 4 -5 -1 14 -12 23
-13 30 -21 20 -24 -20 -7 -111 28 -127 49 -9 13 -32 20 -80 24 l-67 6 56 1
c31 1 90 -7 133 -18z m-2373 -671 c77 -76 184 -159 221 -171 10 -4 9 -9 -2
-25 -8 -12 -47 -66 -86 -120 -252 -350 -487 -853 -584 -1253 -49 -203 -77
-508 -50 -550 8 -12 10 -10 10 9 0 13 3 22 6 19 3 -4 -8 -91 -25 -195 -50
-311 -76 -555 -97 -915 l-6 -118 -44 0 c-23 0 -45 -4 -48 -9 -8 -13 19 -33 57
-40 24 -6 32 -12 30 -27 -1 -10 -3 -65 -4 -122 -1 -100 -2 -103 -28 -117 -62
-32 -233 -43 -296 -19 -10 4 -15 0 -15 -14 0 -24 6 -29 79 -62 42 -19 81 -51
153 -125 l97 -100 6 -170 c31 -854 101 -1356 270 -1940 85 -292 229 -622 333
-763 13 -18 22 -36 19 -38 -3 -3 -24 22 -46 55 -23 34 -44 61 -47 61 -7 0 2
-15 49 -78 21 -30 41 -51 45 -48 7 7 42 -24 42 -37 0 -6 -10 -2 -22 9 l-23 19
19 -22 c10 -13 22 -21 26 -18 3 2 28 -18 55 -45 l48 -49 -69 21 c-122 36 -262
108 -249 127 2 5 -4 16 -15 26 -11 10 -20 15 -20 10 0 -4 8 -14 18 -21 9 -7
12 -14 6 -14 -19 0 -149 125 -215 208 -117 144 -237 349 -325 552 -146 339
-299 938 -365 1425 -27 199 -36 554 -19 749 10 127 10 150 -2 162 -27 27 -45
-13 -64 -141 -24 -163 -24 -506 0 -705 63 -529 227 -1164 396 -1539 45 -100
129 -260 166 -316 8 -12 12 -24 10 -26 -10 -10 15 -327 38 -491 27 -187 103
-588 137 -723 76 -304 173 -605 261 -815 46 -110 155 -330 192 -388 38 -61
262 -603 228 -552 -107 159 -512 565 -805 808 -42 35 -75 68 -72 72 3 5 0 12
-6 16 -8 4 -9 3 -5 -4 4 -7 3 -12 -2 -12 -5 0 -53 47 -107 105 -53 58 -101
103 -105 100 -26 -16 -205 248 -304 450 -114 231 -181 412 -281 760 -131 459
-244 1064 -291 1570 -20 222 -29 1073 -14 1339 28 490 83 908 191 1433 82 405
238 996 329 1253 213 597 363 914 605 1282 86 130 123 175 217 266 62 60 140
132 173 160 l60 52 39 -48 c21 -26 78 -86 127 -133z m2865 16 c77 -9 175 -22
220 -30 44 -8 95 -15 112 -15 30 0 119 -34 357 -135 200 -85 457 -227 760
-421 150 -96 236 -155 531 -361 146 -102 284 -214 415 -337 149 -140 168 -154
170 -118 1 32 19 -41 74 -313 58 -287 138 -762 130 -776 -3 -4 4 -65 15 -136
29 -194 78 -576 98 -778 14 -139 15 -181 6 -183 -30 -8 -364 183 -364 208 0
28 -214 207 -301 250 -104 53 -332 103 -445 99 -30 -1 -56 -1 -57 2 -17 20
-191 260 -264 364 -104 149 -149 220 -278 431 l-92 151 76 -14 c225 -42 581
-146 740 -217 132 -60 166 -55 46 6 -251 127 -655 276 -886 328 -44 10 -58 18
-67 39 -6 14 -45 85 -87 156 -42 72 -133 244 -201 383 l-125 252 -38 0 c-22 0
-44 -6 -51 -15 -16 -20 -8 -100 18 -177 18 -55 18 -57 0 -61 -10 -3 -18 -12
-18 -21 0 -15 94 -282 153 -438 l26 -66 -58 -10 c-66 -12 -151 -49 -151 -66 0
-6 12 -24 26 -39 l26 -28 101 6 102 7 24 -83 c57 -197 249 -699 347 -906 l52
-112 -151 -51 c-84 -29 -157 -54 -164 -56 -7 -3 -36 28 -66 68 -189 256 -405
718 -599 1278 -199 576 -372 1340 -404 1783 -7 102 -18 123 -49 97 -12 -10
-15 -38 -15 -124 0 -214 65 -600 175 -1035 26 -104 35 -158 33 -213 l-1 -73
-6 55 -6 55 -13 -50 c-20 -72 -26 -394 -13 -645 39 -762 235 -1715 473 -2299
21 -52 36 -96 34 -98 -7 -7 -127 88 -121 97 3 5 -7 29 -23 52 -51 76 -158 270
-245 443 -142 285 -235 516 -397 985 -109 317 -122 347 -161 355 -22 5 -36 2
-51 -12 -17 -15 -19 -25 -14 -73 10 -77 71 -322 79 -313 4 3 7 -2 7 -13 0 -27
55 -236 85 -323 14 -41 32 -113 41 -160 34 -187 105 -421 180 -598 24 -57 44
-105 44 -108 0 -11 -192 208 -288 327 -220 277 -379 512 -618 913 -95 159
-177 295 -183 301 -33 39 -121 291 -200 571 -123 437 -187 795 -197 1108 -6
184 -9 205 -29 205 -26 0 -36 -40 -42 -163 -6 -134 12 -331 49 -557 18 -106
22 -165 20 -278 l-3 -142 -27 7 c-15 5 -79 7 -142 7 l-115 -2 7 262 c8 306 24
597 43 786 25 243 37 355 40 366 3 12 234 149 335 199 30 15 62 33 70 41 38
32 315 118 530 163 85 18 254 44 350 54 79 9 478 -3 606 -18z m2079 -448 c72
-58 150 -127 175 -153 39 -42 37 -41 -20 11 -57 52 -201 170 -295 243 -17 13
-21 19 -10 13 11 -5 79 -56 150 -114z m-4142 -139 c-5 -24 -8 -64 -8 -90 0
-27 -4 -48 -8 -48 -4 0 -5 -30 -2 -67 3 -38 2 -60 -2 -51 -5 9 -9 -51 -10
-134 -2 -84 -7 -156 -11 -160 -5 -5 -7 -55 -4 -111 3 -82 -2 -135 -26 -277
-17 -96 -33 -206 -37 -245 -10 -116 -12 -123 -48 -131 -129 -27 -470 -147
-670 -234 -65 -28 -121 -49 -125 -46 -8 9 -22 102 -29 191 -12 163 69 760 97
715 6 -10 42 19 127 101 121 117 312 289 411 369 92 75 336 259 345 259 4 1 4
-18 0 -41z m320 -1394 l37 -7 0 -116 c0 -239 33 -638 71 -866 24 -146 81 -383
114 -473 13 -37 23 -68 21 -69 -2 -2 -30 36 -63 84 -113 165 -213 391 -281
638 -70 250 -137 644 -126 739 5 44 4 56 -7 56 -11 0 -11 2 1 10 17 11 174 13
233 4z m-464 -190 c-7 -93 -13 -283 -13 -421 -1 -139 -2 -248 -4 -243 -2 6 -9
10 -17 10 -7 0 -39 12 -71 26 -91 41 -239 74 -329 76 -64 1 -94 -4 -153 -26
-41 -15 -75 -26 -77 -24 -14 16 -91 300 -120 441 l-23 108 52 24 c139 63 734
218 764 199 2 -1 -2 -78 -9 -170z m228 144 c-3 -8 -6 -5 -6 6 -1 11 2 17 5 13
3 -3 4 -12 1 -19z m-1360 -60 c-3 -8 -6 -5 -6 6 -1 11 2 17 5 13 3 -3 4 -12 1
-19z m4199 -65 c-6 -6 -36 52 -36 69 1 7 10 -4 21 -25 11 -22 18 -41 15 -44z
m-2960 -298 c40 -156 91 -301 144 -410 49 -99 97 -173 85 -130 -3 11 7 -7 23
-40 16 -33 28 -61 27 -63 -2 -2 -18 11 -36 29 -43 40 -148 109 -220 144 l-56
28 -7 96 c-3 53 -6 137 -6 187 0 108 13 320 18 284 1 -14 14 -70 28 -125z
m-1117 10 c22 -135 77 -335 119 -433 l40 -93 -23 -27 c-12 -15 -32 -45 -43
-67 -21 -42 -132 -155 -190 -195 -50 -34 -57 -19 -55 106 2 97 33 373 54 489
22 123 73 325 79 313 4 -7 12 -49 19 -93z m1885 -425 c49 -74 95 -139 102
-145 7 -5 48 -75 91 -155 206 -376 414 -663 634 -875 100 -96 139 -125 328
-246 47 -30 105 -71 130 -91 48 -40 57 -43 81 -28 12 8 7 18 -32 57 -42 44
-118 159 -118 180 0 4 12 -7 26 -25 28 -35 254 -229 266 -228 4 1 28 -15 55
-36 79 -60 174 -109 248 -127 39 -10 81 -24 94 -31 19 -10 26 -9 38 3 13 13 9
19 -35 56 -27 23 -62 65 -77 94 -15 29 -22 47 -15 40 9 -8 21 -6 49 10 20 11
38 22 40 24 2 1 -12 20 -32 42 -44 49 -55 86 -36 120 31 55 110 65 263 31 104
-23 132 -39 152 -85 20 -50 17 -78 -12 -106 -28 -26 -60 -29 -183 -15 l-74 9
6 -154 c6 -180 26 -270 88 -399 105 -221 310 -393 530 -445 97 -22 277 -20
369 6 324 89 601 353 736 702 21 54 40 94 41 90 6 -16 215 -224 220 -219 3 3
11 -1 17 -9 6 -9 27 -18 46 -21 27 -4 40 -1 58 16 13 12 26 20 28 17 3 -3 10
-72 16 -154 11 -161 -2 -570 -27 -823 -12 -122 -20 -156 -83 -345 -78 -235
-198 -554 -216 -572 -28 -29 -936 -558 -1093 -636 -155 -78 -477 -189 -748
-258 -510 -131 -1082 -273 -1280 -320 -213 -49 -223 -51 -320 -44 -122 8 -207
25 -333 67 -94 30 -100 34 -187 118 -115 110 -251 227 -495 424 -435 353 -498
405 -600 496 -279 251 -493 509 -524 630 -3 14 3 6 14 -17 10 -24 37 -69 59
-101 l40 -59 53 9 c29 5 62 11 73 13 11 2 54 12 95 23 65 17 75 18 78 5 3 -12
7 -11 18 5 8 11 30 26 49 32 19 6 35 15 35 20 0 5 8 11 18 14 17 6 144 125
193 181 30 35 99 148 99 163 0 5 7 15 15 22 8 7 15 20 15 29 0 10 9 37 21 60
11 24 18 49 15 57 -3 8 -1 14 4 14 6 0 10 7 10 15 0 12 -4 13 -17 6 -16 -8
-18 -3 -18 63 1 39 -3 76 -8 83 -5 7 -6 17 -2 23 3 5 1 10 -5 10 -6 0 -8 5 -5
10 3 6 2 10 -4 10 -5 0 -8 8 -6 18 1 9 -5 31 -13 47 -9 17 -16 35 -16 40 -1 6
-11 21 -23 35 -13 13 -23 30 -23 37 0 7 -4 13 -10 13 -5 0 -7 7 -4 15 4 8 1
15 -5 15 -6 0 -8 7 -4 17 5 13 2 15 -11 10 -10 -4 -15 -3 -11 3 3 6 0 10 -7
10 -8 0 -14 8 -15 19 -2 23 -51 74 -64 66 -5 -4 -12 1 -15 9 -3 9 -12 16 -20
16 -8 0 -14 5 -14 11 0 5 -4 7 -10 4 -5 -3 -10 1 -10 9 0 9 -7 17 -15 18 -8 0
-21 1 -27 2 -7 1 -16 6 -20 11 -4 6 -18 10 -30 10 -14 0 -23 6 -23 15 0 8 -10
16 -22 18 -12 2 -27 10 -33 18 -7 8 -20 14 -29 14 -19 1 -112 31 -199 66 -53
21 -72 24 -124 18 -39 -4 -59 -3 -55 3 4 6 -12 10 -39 10 -29 0 -49 5 -55 14
-6 9 -9 -8 -11 -51 -1 -36 -5 25 -8 135 -4 110 -11 288 -15 395 l-7 195 53 42
c30 23 71 60 92 81 l38 39 -25 16 c-71 47 -87 111 -42 164 22 25 30 28 88 27
149 -2 295 -121 244 -200 -27 -41 -59 -47 -149 -29 -44 9 -82 14 -85 11 -3 -3
3 -54 12 -113 46 -280 161 -503 336 -650 121 -101 224 -143 356 -143 252 0
492 218 599 546 76 234 76 541 1 780 -13 41 -22 74 -20 74 10 0 69 -99 79
-134 7 -23 19 -42 29 -44 21 -4 20 11 -4 127 -24 111 -24 119 -8 103 12 -12
58 -17 58 -7 0 3 -22 52 -49 108 -53 109 -131 214 -247 332 -69 69 -63 68 51
-16 39 -28 63 -58 104 -130 87 -153 121 -198 234 -316 111 -115 138 -133 162
-113 11 9 7 20 -21 62 -87 133 -179 498 -224 893 -21 178 -24 261 -14 315 7
30 12 22 93 -136 47 -93 126 -230 175 -304z m1561 -12 c73 -127 208 -326 287
-423 38 -48 66 -90 62 -94 -5 -4 -35 -24 -66 -44 -52 -35 -76 -63 -64 -75 3
-2 42 14 86 37 111 58 132 50 42 -16 -75 -55 -88 -62 -76 -40 4 7 3 9 -2 4 -5
-5 -9 -12 -9 -17 0 -4 -36 -39 -80 -77 -44 -38 -96 -92 -115 -121 -19 -28 -38
-51 -41 -52 -17 -1 -39 236 -59 615 -6 110 -13 242 -17 293 -3 50 -3 92 -1 92
3 0 27 -37 53 -82z m-3523 -524 l-27 -56 -11 39 c-11 37 -10 38 20 54 47 25
48 23 18 -37z m6142 -288 c56 -12 60 -15 62 -42 2 -16 5 -55 8 -87 6 -70 6
-70 -92 47 -104 124 -100 119 -66 105 16 -6 56 -16 88 -23z m-5051 -165 c6 -9
23 -38 36 -64 27 -53 81 -97 121 -97 14 0 36 -9 50 -20 21 -17 23 -21 10 -30
-8 -5 -31 -10 -52 -10 -32 0 -43 -8 -98 -67 -105 -115 -190 -320 -190 -459 0
-70 -21 -134 -43 -134 -19 0 -27 51 -27 175 0 171 -28 285 -93 382 -40 60 -83
89 -153 103 -60 13 -66 21 -27 39 84 38 203 146 286 261 14 19 14 16 -2 -12
l-20 -38 67 0 c37 0 78 -3 91 -7 21 -5 23 -3 17 12 -4 11 -9 40 -11 65 -4 38
-2 35 10 -19 8 -36 21 -72 28 -80z m-63 75 c18 -19 -3 -36 -45 -36 l-42 0 11
34 c13 42 59 64 64 31 2 -11 7 -24 12 -29z m3857 12 c-3 -8 -6 -5 -6 6 -1 11
2 17 5 13 3 -3 4 -12 1 -19z m50 -20 c-3 -8 -6 -5 -6 6 -1 11 2 17 5 13 3 -3
4 -12 1 -19z m-60 -50 c-3 -8 -6 -5 -6 6 -1 11 2 17 5 13 3 -3 4 -12 1 -19z
m50 -25 c-3 -10 -5 -4 -5 12 0 17 2 24 5 18 2 -7 2 -21 0 -30z m-1335 -38 c-2
-14 -8 -22 -13 -19 -13 8 -11 32 4 37 6 3 13 6 13 6 1 1 -1 -10 -4 -24z m1335
-97 c-3 -7 -5 -2 -5 12 0 14 2 19 5 13 2 -7 2 -19 0 -25z m-124 -50 c-17 -35
-46 -85 -64 -113 l-34 -50 133 0 c150 0 138 5 192 -86 30 -50 84 -89 123 -89
23 0 58 -15 87 -38 13 -10 -39 -32 -76 -32 -40 0 -46 -4 -113 -77 -123 -133
-203 -330 -219 -535 -10 -121 -31 -173 -59 -145 -11 11 -16 45 -19 138 -6 192
-13 264 -36 337 -56 181 -135 267 -266 288 -44 7 -57 28 -23 39 42 13 140 85
212 156 72 70 135 163 169 247 7 18 15 30 18 28 2 -3 -9 -33 -25 -68z m85 -13
c2 -16 6 -37 9 -45 3 -8 6 -18 5 -21 -1 -4 3 -21 8 -38 l9 -31 -75 0 -74 0 17
38 c10 20 22 44 28 52 32 46 37 63 23 72 -9 6 -3 8 17 6 25 -3 30 -8 33 -33z
m61 -53 c6 -35 14 -71 17 -80 5 -14 4 -14 -4 -2 -5 8 -15 40 -22 70 -6 30 -14
64 -17 75 -3 13 -2 16 4 10 5 -5 15 -38 22 -73z m-1468 -209 c13 -16 12 -17
-3 -4 -10 7 -18 15 -18 17 0 8 8 3 21 -13z m-3562 -200 c1 -18 -3 -33 -9 -33
-6 0 -10 28 -10 63 0 34 -2 87 -5 117 -2 35 1 25 10 -30 7 -47 14 -100 14
-117z m-1307 -315 c-3 -609 8 -799 74 -1263 87 -609 227 -1172 400 -1602 48
-120 52 -135 42 -170 -22 -82 15 -318 82 -523 138 -417 409 -869 683 -1137 57
-57 101 -103 98 -103 -45 1 -307 79 -394 117 -58 26 -74 43 -21 23 22 -9 26
-8 18 0 -7 7 -29 13 -50 14 -39 2 -97 27 -109 46 -3 5 -27 19 -52 30 -227 100
-481 385 -648 725 -192 390 -288 800 -347 1475 -17 194 -17 977 0 1215 35 478
101 985 191 1460 11 55 22 117 26 138 3 20 7 37 8 37 1 0 1 -217 -1 -482z
m1309 172 l-9 -45 -1 57 c-1 64 12 114 17 63 1 -16 -2 -50 -7 -75z m14 -97
c-4 -36 -9 -62 -12 -59 -3 3 -2 40 2 83 5 43 10 69 13 59 2 -10 1 -48 -3 -83z
m21 -360 c-8 -8 -25 257 -19 292 6 29 10 -7 15 -125 4 -90 6 -165 4 -167z m91
-410 c-3 -10 -5 -2 -5 17 0 19 2 27 5 18 2 -10 2 -26 0 -35z m10 -140 c-2 -16
-4 -5 -4 22 0 28 2 40 4 28 2 -13 2 -35 0 -50z m10 -65 c-3 -7 -5 -2 -5 12 0
14 2 19 5 13 2 -7 2 -19 0 -25z m10 -50 c-3 -8 -6 -5 -6 6 -1 11 2 17 5 13 3
-3 4 -12 1 -19z m10 -40 c-3 -8 -6 -5 -6 6 -1 11 2 17 5 13 3 -3 4 -12 1 -19z
m20 -80 c-3 -8 -6 -5 -6 6 -1 11 2 17 5 13 3 -3 4 -12 1 -19z m10 -40 c-3 -8
-6 -5 -6 6 -1 11 2 17 5 13 3 -3 4 -12 1 -19z m10 -40 c-3 -8 -6 -5 -6 6 -1
11 2 17 5 13 3 -3 4 -12 1 -19z m20 -70 c-3 -8 -6 -5 -6 6 -1 11 2 17 5 13 3
-3 4 -12 1 -19z m32 -98 c0 -9 -4 -8 -9 5 -5 11 -9 27 -9 35 0 9 4 8 9 -5 5
-11 9 -27 9 -35z m174 -433 c-2 -4 -1 -6 4 -5 4 1 55 -46 113 -106 134 -139
310 -293 581 -512 174 -140 218 -180 223 -204 3 -16 23 -72 45 -123 l40 -93
-20 -99 c-49 -251 -47 -574 6 -906 33 -209 69 -311 155 -439 57 -85 56 -82 8
-64 -75 29 -208 92 -208 99 0 4 7 5 15 1 22 -8 18 2 -6 15 -15 8 -19 8 -15 0
12 -19 -7 -12 -64 23 -30 18 -54 38 -53 44 1 5 -5 16 -15 24 -15 12 -16 11 -3
-4 7 -10 10 -18 7 -18 -15 0 -96 62 -92 69 5 8 -28 42 -69 71 -12 8 0 -4 25
-27 25 -24 41 -43 36 -43 -13 0 -108 82 -101 88 3 3 -61 73 -143 156 -224 228
-416 470 -622 782 l-107 162 -51 263 c-29 145 -53 282 -55 304 -2 40 -2 40 36
43 21 2 46 10 55 18 103 90 126 97 202 63 52 -23 47 -18 -34 36 -32 21 -80 59
-108 83 -46 42 -50 43 -67 28 -10 -9 -21 -13 -25 -9 -4 4 -17 8 -29 8 -64 3
-77 6 -77 15 0 13 37 13 45 1 5 -8 26 -9 90 -2 5 1 -11 21 -35 46 -42 42 -45
44 -67 30 -26 -17 -43 -19 -43 -5 0 6 14 13 30 17 17 3 30 8 30 12 -1 3 -19
26 -41 51 l-41 45 6 -45 c3 -25 11 -90 17 -145 14 -129 48 -333 105 -620 42
-215 48 -234 87 -300 95 -157 374 -539 505 -689 24 -28 109 -117 190 -198 80
-82 141 -148 135 -148 -15 0 -287 281 -378 390 -118 142 -276 356 -391 530
-118 178 -114 167 -183 537 -49 258 -67 377 -90 573 l-17 153 35 -44 c65 -80
205 -220 271 -270 139 -105 295 -164 503 -190 75 -10 100 -10 109 -1 15 15 31
16 22 0 -4 -7 -3 -8 4 -4 9 5 9 13 2 26 -14 26 -36 36 -94 44 -27 3 -69 17
-93 31 -77 46 -202 214 -299 403 -45 88 -50 101 -26 72 17 -19 28 -38 25 -43z
m6102 -139 c-47 -507 -127 -1114 -188 -1431 l-33 -169 -49 -61 c-407 -509
-882 -848 -1308 -931 l-67 -14 36 37 c109 112 226 356 273 573 46 213 88 581
98 856 6 158 8 172 24 172 45 0 332 168 477 279 257 195 515 480 667 735 32
53 60 94 63 92 2 -3 -3 -17 -12 -30 -18 -29 -21 -40 -6 -31 6 3 10 1 10 -5 0
-7 -7 -9 -16 -6 -12 5 -15 2 -10 -9 3 -9 2 -14 -3 -10 -5 3 -19 -10 -30 -29
-26 -41 -26 -47 -3 -40 14 5 15 4 2 -5 -13 -9 -13 -11 2 -11 9 0 20 5 23 10 9
14 25 12 25 -3 0 -15 -56 -21 -65 -7 -11 18 -26 -1 -20 -23 5 -16 4 -18 -3 -8
-8 11 -12 10 -21 -8 -7 -12 -8 -21 -2 -21 5 0 17 -3 27 -7 13 -5 15 -3 9 8 -7
11 -6 12 6 2 8 -6 25 -13 39 -16 14 -3 3 -4 -25 -2 -27 2 -56 5 -64 7 -7 1
-16 -3 -18 -9 -3 -8 3 -13 14 -13 11 0 27 -6 36 -12 16 -12 15 -13 -9 -15 -16
0 -22 2 -15 7 9 5 4 9 -13 12 -14 3 -30 0 -35 -5 -14 -14 -14 -30 -1 -22 6 3
10 1 10 -5 0 -7 -6 -10 -14 -7 -8 3 -36 -22 -72 -66 -32 -40 -108 -123 -168
-184 -60 -62 -105 -113 -100 -113 6 0 15 5 22 12 8 8 12 8 12 1 0 -6 -8 -14
-17 -17 -15 -6 -15 -8 -3 -17 12 -8 11 -9 -5 -6 -11 2 -19 9 -17 16 2 8 -14
-1 -35 -18 -128 -108 -200 -162 -298 -227 -137 -89 -287 -173 -326 -181 l-29
-5 0 -101 c0 -203 -47 -655 -90 -870 -47 -232 -144 -452 -267 -606 l-28 -34
35 8 c46 10 271 85 290 96 10 6 6 7 -12 3 -20 -4 -46 3 -94 27 -75 38 -79 42
-64 69 11 20 12 20 68 -9 31 -16 76 -32 99 -36 24 -4 45 -11 48 -15 7 -11 106
32 149 64 17 13 55 36 84 51 28 16 52 33 52 38 0 5 -7 3 -17 -4 -12 -10 -46
-14 -127 -13 -90 1 -127 6 -196 28 -93 29 -103 35 -91 55 7 11 13 10 37 -2 29
-15 49 -19 179 -38 65 -9 166 -2 242 17 19 5 24 4 18 -5 -5 -9 -2 -9 13 0 12
7 18 17 15 23 -3 5 -1 6 5 2 27 -17 498 436 486 468 -3 7 3 40 13 72 9 33 18
64 18 71 0 7 6 18 14 25 11 11 13 10 8 -7 -2 -11 -10 -42 -17 -70 -7 -27 -17
-58 -22 -68 -5 -11 -8 -21 -5 -23 5 -5 129 142 144 171 17 32 78 375 122 686
49 348 88 696 115 1029 6 65 5 64 12 58 3 -4 -2 -84 -11 -180z m-6497 -1 c8
-10 6 -13 -9 -13 -10 0 -19 6 -19 13 0 7 4 13 9 13 5 0 13 -6 19 -13z m6469
-3 c-3 -3 -12 -4 -19 -1 -8 3 -5 6 6 6 11 1 17 -2 13 -5z m-34 -61 c-7 -2 -19
-2 -25 0 -7 3 -2 5 12 5 14 0 19 -2 13 -5z m31 -17 c-6 -15 -34 -23 -34 -10 0
8 34 34 38 30 1 -2 0 -11 -4 -20z m-6393 -3 c13 -15 12 -16 -11 -8 -14 4 -37
8 -52 8 -15 0 -25 4 -22 8 9 16 71 10 85 -8z m5614 -170 c-127 -246 -295 -515
-395 -633 l-29 -35 -1 66 c0 36 -2 115 -4 175 -4 88 -3 97 4 44 4 -36 8 -108
9 -160 l2 -95 29 35 c37 43 37 48 3 43 -24 -4 -26 -3 -10 7 10 7 24 9 32 7 12
-5 95 99 95 119 0 5 -7 -2 -16 -15 -16 -22 -100 -81 -116 -81 -19 0 -6 39 15
45 12 4 42 19 67 33 25 15 48 26 52 24 7 -2 80 113 163 258 48 82 49 86 46
158 -2 55 1 72 9 67 8 -5 11 -26 8 -61 l-5 -54 25 42 c44 78 73 140 68 145 -8
8 -27 -7 -21 -17 3 -5 0 -12 -6 -16 -8 -4 -9 -3 -5 4 11 19 -2 14 -57 -19
l-52 -31 3 -48 c10 -134 -81 -292 -233 -407 -60 -46 -85 -57 -85 -39 0 8 21
27 47 42 140 82 242 234 259 387 5 45 4 59 -5 56 -7 -3 -14 -27 -16 -55 -9
-133 -113 -288 -250 -375 -42 -27 -45 -27 -45 -9 0 11 4 20 10 20 15 0 137
112 169 157 37 51 66 112 81 173 7 25 17 51 22 58 16 19 -3 14 -47 -13 -23
-14 -33 -25 -23 -25 13 0 15 -5 9 -28 -13 -44 -61 -132 -87 -161 -13 -14 -24
-29 -24 -33 0 -12 -104 -90 -108 -80 -2 6 26 40 62 76 60 62 148 207 134 221
-7 8 -219 -115 -223 -129 -2 -6 -6 -24 -10 -40 -9 -41 -14 -28 -6 18 6 38 8
40 201 151 107 61 229 133 270 158 41 26 76 47 76 47 1 0 -40 -80 -91 -177z
m775 115 c0 -5 -11 -8 -24 -8 -14 0 -27 3 -29 8 -3 4 8 7 24 7 16 0 29 -3 29
-7z m-6294 -30 c4 -6 3 -8 -3 -5 -5 4 -19 -2 -30 -13 -16 -14 -30 -17 -60 -13
-22 3 -50 0 -62 -6 -18 -10 -21 -9 -21 8 0 28 10 31 67 22 37 -5 55 -4 69 6
22 16 31 16 40 1z m5501 -50 c-3 -7 -5 -2 -5 12 0 14 2 19 5 13 2 -7 2 -19 0
-25z m718 10 c2 -13 6 -36 8 -53 2 -17 5 -5 6 25 1 39 4 50 11 39 14 -24 13
-80 -3 -129 l-15 -45 -7 78 c-4 42 -11 77 -15 77 -4 0 -25 -8 -46 -17 -39 -17
-90 -25 -76 -12 12 13 106 58 119 59 7 0 15 -10 18 -22z m-952 -115 c-23 -61
-140 -213 -164 -213 -20 0 -6 28 39 76 26 29 56 69 67 90 27 52 74 90 58 47z
m-103 -48 c0 -10 -34 -60 -57 -84 -16 -17 -23 -37 -25 -70 l-1 -46 -4 40 c-6
53 13 112 44 141 24 23 43 31 43 19z m1059 -40 l0 -20 -9 20 c-5 11 -9 27 -9
35 -1 13 0 13 9 0 5 -8 9 -24 9 -35z m-1279 -161 c-79 -272 -232 -615 -398
-889 -184 -304 -359 -526 -545 -694 -169 -153 -443 -336 -459 -308 -7 14 -108
343 -108 354 0 19 13 -17 54 -147 25 -80 49 -157 55 -172 l10 -26 43 22 c105
51 300 194 426 311 171 160 364 412 525 685 l55 95 -24 95 c-13 52 -24 104
-24 115 0 26 50 133 65 139 14 5 114 -54 115 -68 0 -5 -29 -65 -65 -134 -36
-69 -63 -127 -61 -130 3 -2 48 83 100 189 92 191 163 356 155 364 -7 7 -156 8
-167 1 -16 -9 -65 -97 -66 -118 -1 -10 -6 -22 -13 -26 -16 -10 -35 -62 -23
-62 6 0 10 -5 10 -11 0 -6 -6 -9 -14 -6 -8 3 -17 -1 -20 -9 -3 -8 -1 -14 5
-14 6 0 7 -5 4 -10 -4 -6 -11 -8 -16 -5 -5 4 -9 1 -9 -6 0 -7 -2 -10 -5 -7 -3
2 2 28 11 57 19 67 16 170 -8 233 l-18 48 111 56 c61 30 113 54 115 52 1 -2
-2 -23 -8 -46 -6 -24 -8 -45 -5 -48 5 -5 102 12 137 24 11 4 12 2 4 -7 -6 -6
-39 -16 -75 -22 -44 -7 -71 -17 -87 -33 l-24 -23 78 -2 c43 -1 81 -4 85 -7 6
-3 62 162 88 259 l10 37 -39 -21 c-21 -12 -37 -27 -34 -33 2 -6 -10 -27 -27
-46 -24 -27 -28 -29 -18 -10 6 14 18 33 27 43 18 20 12 21 -22 6 -14 -7 -23
-16 -20 -20 2 -4 -2 -24 -10 -44 -15 -35 -15 -35 8 -31 13 2 38 12 56 21 21
11 31 12 28 5 -5 -17 -102 -53 -106 -40 -2 6 -7 8 -12 5 -8 -5 10 52 24 74 11
17 11 17 -98 -43 -89 -49 -295 -145 -389 -181 -26 -10 -45 -20 -43 -23 11 -11
-38 -86 -92 -140 -63 -64 -128 -111 -182 -132 -104 -39 -101 -35 -135 -199 -9
-41 -17 -77 -20 -79 -7 -7 -25 9 -25 22 0 49 -131 237 -185 266 -14 7 -25 16
-25 20 0 8 200 70 225 70 9 0 14 -4 11 -9 -4 -5 -1 -11 5 -13 7 -2 13 -21 14
-41 1 -21 5 -40 8 -43 3 -3 3 -13 1 -22 -4 -11 -1 -10 7 3 27 43 57 66 134
103 56 27 101 59 150 107 39 37 79 71 90 76 16 6 16 8 3 8 -9 1 -67 -19 -130
-43 -63 -24 -134 -50 -159 -56 -24 -7 -39 -14 -34 -17 6 -2 37 6 70 17 32 11
60 18 62 17 5 -5 -112 -67 -126 -67 -6 0 -11 7 -11 15 0 20 -8 19 -92 -13 -40
-15 -152 -52 -248 -82 l-175 -54 3 -70 c4 -83 -17 -207 -29 -166 -11 40 -10
100 5 168 l13 63 -31 -7 c-17 -3 -32 -7 -32 -8 -1 0 7 -53 17 -116 38 -231 80
-598 84 -735 l4 -140 -14 181 c-19 250 -85 742 -105 791 -9 21 -4 24 93 53
252 77 730 243 952 331 120 48 311 143 475 237 58 33 106 56 108 51 2 -4 -11
-56 -28 -115z m1270 73 c0 -18 -2 -19 -10 -7 -13 20 -13 43 0 35 6 -3 10 -16
10 -28z m-1295 -47 c-10 -11 -23 -20 -28 -20 -6 0 -2 9 8 20 10 11 23 20 28
20 6 0 2 -9 -8 -20z m1285 -25 c0 -8 -4 -15 -10 -15 -5 0 -10 7 -10 15 0 8 5
15 10 15 6 0 10 -7 10 -15z m36 -53 c-4 -32 -18 -80 -31 -106 -14 -27 -25 -59
-26 -70 0 -12 -3 -15 -6 -8 -2 6 -9 10 -14 6 -5 -3 -9 0 -9 6 0 6 7 13 15 16
17 7 21 44 5 44 -5 0 -10 7 -10 15 0 8 6 12 14 9 9 -4 15 7 20 35 6 39 35 111
44 111 3 0 2 -26 -2 -58z m-426 28 c0 -5 -5 -10 -11 -10 -5 0 -7 5 -4 10 3 6
8 10 11 10 2 0 4 -4 4 -10z m-68 -87 c1 -34 0 -65 -5 -69 -4 -4 -7 17 -7 47 0
30 -3 65 -6 79 -5 17 -3 22 4 15 6 -5 12 -38 14 -72z m55 40 c-8 -7 -37 9 -31
19 3 5 12 4 20 -3 8 -6 13 -14 11 -16z m-897 8 c0 -8 -103 -41 -128 -41 -6 0
-9 6 -6 14 3 8 13 12 22 10 9 -2 37 2 62 10 25 8 46 15 48 15 1 1 2 -3 2 -8z
m1290 -16 c0 -8 -4 -15 -10 -15 -5 0 -10 7 -10 15 0 8 5 15 10 15 6 0 10 -7
10 -15z m-480 -101 c10 -49 19 -91 20 -94 1 -3 2 -12 1 -21 -1 -9 7 -67 18
-130 34 -195 53 -397 47 -494 -7 -114 -16 -165 -28 -165 -5 0 -6 -4 -3 -10 3
-5 2 -10 -2 -10 -5 0 -15 -16 -22 -35 -7 -19 -17 -33 -22 -30 -5 4 -9 0 -9 -8
0 -16 -66 -87 -82 -87 -7 0 -6 -5 2 -15 10 -12 7 -17 -14 -26 -14 -7 -26 -16
-26 -21 0 -4 -7 -8 -15 -8 -8 0 -15 -4 -15 -10 0 -5 -7 -10 -15 -10 -8 0 -15
-4 -15 -9 0 -10 -72 -41 -110 -47 -14 -3 -38 -10 -55 -17 -40 -16 -269 -16
-315 1 l-36 12 23 133 c27 161 60 458 69 625 7 118 8 122 29 122 12 0 41 7 64
15 22 8 41 12 41 10 0 -10 110 44 161 79 55 38 159 150 159 172 0 6 7 17 14
24 8 6 22 35 31 63 18 55 61 105 77 89 5 -5 18 -49 28 -98z m73 83 c4 3 7 1 7
-5 0 -7 -4 -12 -8 -12 -12 0 -32 22 -32 35 0 5 7 2 14 -7 7 -10 16 -15 19 -11z
m-6 -42 c9 -25 -4 -29 -17 -6 -7 15 -7 21 0 21 6 0 13 -7 17 -15z m-907 -16
c0 -5 -32 -9 -72 -9 -83 0 -83 12 0 20 61 6 72 4 72 -11z m-3515 -109 c136
-111 265 -228 395 -360 117 -119 130 -128 205 -158 87 -35 164 -52 231 -52 40
0 230 38 384 76 88 22 499 140 534 153 49 19 51 17 65 -91 52 -417 255 -1190
362 -1376 10 -18 19 -35 19 -38 0 -7 -178 85 -185 95 -6 11 38 -8 113 -47 23
-12 42 -21 42 -20 0 2 -14 37 -31 78 -124 299 -285 932 -330 1298 -7 56 -16
102 -19 102 -3 0 -46 -14 -96 -30 -49 -17 -125 -40 -169 -51 -44 -11 -123 -34
-175 -50 -52 -16 -149 -41 -215 -55 -66 -13 -149 -31 -185 -39 -89 -20 -173
-19 -255 4 -38 11 -71 18 -73 17 -1 -2 3 -15 9 -30 14 -29 32 -36 23 -8 -5 13
-4 14 4 3 6 -8 8 -20 5 -27 -5 -14 29 -83 134 -271 62 -111 133 -280 133 -317
0 -5 -15 3 -32 20 l-33 29 29 -32 c16 -18 34 -30 39 -26 6 3 7 1 4 -4 -4 -6 1
-17 10 -24 15 -12 16 -12 9 6 -53 135 -157 547 -142 562 3 4 6 -1 6 -10 0 -20
16 -23 23 -4 2 6 2 -12 -1 -40 -3 -35 3 -83 18 -145 31 -126 110 -380 122
-396 6 -7 9 -15 6 -17 -9 -9 -296 266 -430 411 -315 344 -530 644 -643 900
-28 64 -36 67 90 -36z m3006 29 c-5 -13 -10 -19 -10 -12 -1 15 10 45 15 40 3
-2 0 -15 -5 -28z m442 11 c21 0 37 -5 37 -11 0 -8 -16 -9 -52 -4 -29 4 -61 7
-70 7 -9 0 -19 5 -21 12 -4 11 3 12 31 5 20 -5 54 -9 75 -9z m957 -12 c0 -5
-4 -8 -10 -8 -5 0 -10 10 -10 23 0 18 2 19 10 7 5 -8 10 -18 10 -22z m-995
-23 c33 -7 49 -14 35 -14 -14 0 -47 6 -75 13 -64 18 -38 19 40 1z m-343 -47
c73 -145 75 -242 8 -423 -34 -94 -40 -119 -30 -128 10 -10 12 -8 7 6 -4 9 -2
17 4 17 6 0 9 6 7 12 -5 15 20 43 30 34 3 -4 0 -11 -8 -16 -8 -6 -11 -10 -5
-10 5 0 4 -5 -2 -11 -6 -6 -9 -18 -6 -25 3 -8 0 -14 -7 -14 -6 0 -8 -4 -5 -10
3 -6 -1 -7 -9 -4 -19 7 -23 21 -31 117 -8 89 4 507 14 507 4 0 19 -24 33 -52z
m251 32 c3 -12 1 -17 -5 -14 -5 3 -16 -2 -24 -12 -12 -16 -12 -13 1 14 18 38
21 39 28 12z m1486 -21 c-9 -5 -15 -4 -18 2 -2 6 3 15 10 20 9 5 15 4 18 -2 2
-6 -3 -15 -10 -20z m-1809 -11 c0 -29 -74 -163 -124 -221 -63 -75 -159 -141
-258 -176 -49 -17 -88 -29 -88 -27 0 2 7 19 14 38 12 27 25 39 63 53 150 56
278 164 343 288 36 70 50 82 50 45z m16 -34 c-4 -20 -10 -34 -12 -31 -3 3 -2
21 2 41 3 21 9 35 11 32 3 -3 2 -21 -1 -42z m424 16 c0 -5 -5 -10 -11 -10 -5
0 -7 5 -4 10 3 6 8 10 11 10 2 0 4 -4 4 -10z m1404 -42 c-4 -29 -12 -60 -19
-68 -6 -8 -17 -30 -25 -47 -7 -18 -17 -30 -22 -27 -5 3 -4 12 3 20 6 8 9 23 6
34 -3 11 -2 18 2 15 5 -2 14 14 20 37 31 102 45 117 35 36z m-1455 6 c59 -30
31 -31 -31 0 -35 17 -51 20 -65 12 -16 -8 -16 -8 -4 7 16 20 31 17 100 -19z
m1409 16 c-7 -11 -15 -15 -17 -9 -2 6 3 15 10 20 20 12 21 11 7 -11z m-1784
-144 c-4 -26 -10 -42 -14 -36 -4 6 -23 -17 -45 -55 -22 -37 -62 -90 -90 -120
-66 -71 -195 -148 -275 -165 -48 -10 -64 -18 -68 -34 -5 -19 -6 -19 -12 -1
-11 30 19 53 129 98 144 60 242 141 306 257 11 19 26 41 33 48 6 7 12 18 12
23 0 6 5 7 10 4 6 -3 10 4 10 16 0 12 2 20 5 17 3 -2 2 -26 -1 -52z m1766 30
c0 -3 -4 -8 -10 -11 -5 -3 -10 -1 -10 4 0 6 5 11 10 11 6 0 10 -2 10 -4z m-5
-85 c-6 -5 -25 10 -25 20 0 5 6 4 14 -3 8 -7 12 -15 11 -17z m-2657 -41 c0 -9
-3 -7 -8 5 -5 11 -8 29 -8 40 0 16 2 15 8 -5 4 -14 8 -32 8 -40z m1058 14 c-9
-9 -20 -14 -23 -10 -4 3 2 13 13 20 25 18 31 12 10 -10z m1584 2 c0 -3 -4 -8
-10 -11 -5 -3 -10 -1 -10 4 0 6 5 11 10 11 6 0 10 -2 10 -4z m-181 -140 c36
-30 79 -58 94 -61 25 -7 27 -10 21 -44 -4 -20 -10 -43 -15 -52 -5 -9 -7 -18
-5 -20 2 -2 -3 -10 -11 -18 -13 -12 -14 -11 -8 8 5 18 1 24 -28 36 -19 8 -59
35 -88 60 l-54 46 -6 -33 c-6 -28 -7 -30 -9 -8 -1 14 -1 51 0 84 1 32 -2 56
-7 53 -5 -3 -7 11 -5 31 l5 37 24 -32 c14 -18 55 -57 92 -87z m-2437 -27 c-1
-129 -61 -290 -70 -191 -2 19 4 49 13 68 23 48 26 67 32 169 5 73 8 85 16 65
5 -14 9 -64 9 -111z m2618 122 c0 -5 -7 -11 -15 -15 -15 -5 -20 5 -8 17 9 10
23 9 23 -2z m-1610 -21 c-6 -11 -8 -20 -5 -20 3 0 0 -6 -7 -14 -7 -8 -17 -12
-21 -9 -5 3 -1 14 9 24 9 10 13 19 8 19 -5 0 -2 5 6 10 21 14 22 13 10 -10z
m-1358 -30 c3 -35 -1 -44 -27 -68 -52 -48 -86 -66 -96 -51 -19 30 -9 64 25 87
18 12 43 34 56 47 32 34 37 32 42 -15z m2963 0 c4 -6 -1 -7 -12 -3 -14 5 -16
3 -6 -7 9 -10 8 -16 -3 -28 -8 -8 -18 -11 -22 -8 -3 4 -1 11 6 15 7 4 10 15 6
24 -7 19 20 25 31 7z m-3096 -22 c0 -13 -4 -32 -9 -43 -7 -15 -9 -10 -9 23 -1
23 4 42 9 42 6 0 10 -10 9 -22z m1346 -45 c3 -32 8 -80 11 -106 3 -33 1 -47
-6 -42 -5 3 -10 40 -10 81 0 41 -3 74 -7 74 -5 -1 -21 -21 -37 -46 -89 -141
-262 -263 -396 -281 -19 -2 -42 -12 -50 -22 -13 -15 -18 -15 -28 -5 -16 18
-15 37 2 31 8 -3 17 0 19 8 3 7 21 16 39 20 18 4 38 10 43 13 6 4 18 8 27 9
20 3 127 53 146 68 7 5 21 17 30 26 9 8 31 25 49 37 30 21 123 141 123 159 0
11 21 33 31 33 4 0 10 -26 14 -57z m1735 -19 c0 -2 -9 -4 -20 -4 -11 0 -20 4
-20 9 0 5 9 7 20 4 11 -3 20 -7 20 -9z m-1635 -14 c3 -5 1 -10 -4 -10 -6 0
-11 5 -11 10 0 6 2 10 4 10 3 0 8 -4 11 -10z m119 -5 c5 -13 -53 -77 -88 -97
-7 -4 -30 -32 -51 -63 -41 -59 -42 -60 -65 -44 -13 9 -13 10 2 6 12 -4 18 3
23 29 3 19 10 32 16 29 5 -4 9 -2 9 4 0 17 124 151 140 151 4 0 10 -7 14 -15z
m-1858 -11 c53 -22 151 -93 196 -141 75 -82 100 -164 114 -375 4 -70 3 -98 -5
-98 -6 0 -11 4 -11 9 0 16 -131 150 -174 177 -24 15 -51 42 -61 61 -10 18 -22
33 -27 33 -5 0 -7 4 -4 9 8 13 -4 42 -15 35 -5 -3 -6 3 -2 12 5 14 3 16 -13
10 -15 -6 -16 -4 -7 5 9 9 6 25 -14 68 -75 164 -85 193 -71 202 20 13 51 11
94 -7z m3364 6 c0 -5 -5 -10 -11 -10 -5 0 -7 5 -4 10 3 6 8 10 11 10 2 0 4 -4
4 -10z m50 6 c0 -19 -34 -181 -46 -218 -15 -47 -46 -88 -39 -51 10 49 14 113
7 113 -4 0 -20 -19 -35 -42 -16 -25 -26 -35 -25 -23 2 11 7 25 11 32 4 6 4 13
0 16 -5 2 -3 3 3 1 15 -3 68 112 58 127 -4 7 -3 10 3 6 5 -4 16 5 23 18 11 21
40 36 40 21z m-3590 -33 c0 -5 -8 -42 -18 -84 -23 -94 -76 -191 -141 -256
l-50 -50 -12 50 -12 51 35 31 c45 38 109 138 128 196 7 24 18 50 23 57 10 13
47 17 47 5z m476 -50 c2 -13 8 -23 13 -23 5 0 35 18 67 39 63 42 71 40 73 -16
2 -37 -135 -123 -152 -96 -3 5 -8 42 -11 83 -5 69 -3 72 10 13z m568 -34 c20
-50 35 -93 33 -95 -2 -3 -12 17 -22 43 -24 66 -33 72 -40 27 -18 -121 -28
-156 -62 -223 l-38 -74 -3 38 c-2 24 5 55 21 89 42 87 55 128 62 209 4 42 9
77 10 77 2 0 19 -41 39 -91z m-1174 60 c0 -19 -60 -111 -96 -149 -19 -19 -34
-39 -34 -45 0 -5 9 -44 20 -85 10 -41 17 -76 15 -79 -6 -5 -10 9 -35 109 -12
47 -24 94 -27 105 -3 13 -2 17 5 10 5 -5 12 -19 15 -30 4 -19 5 -19 6 1 0 12
-6 27 -14 34 -8 7 -15 9 -15 6 0 -4 -9 -2 -19 4 -19 9 -16 14 29 56 28 26 68
52 92 59 54 17 58 17 58 4z m-307 -24 c28 -6 37 -12 37 -27 0 -10 4 -17 8 -14
7 4 7 -22 2 -126 0 -3 -7 -5 -17 -4 -9 2 -29 26 -44 54 -15 28 -30 48 -33 45
-6 -6 -7 -4 -11 34 -1 13 -8 30 -16 39 -13 16 -11 17 11 11 14 -3 42 -9 63
-12z m522 -4 c-7 -12 15 -61 27 -61 5 0 6 -4 3 -10 -3 -5 -1 -10 5 -10 6 0 9
-4 5 -9 -3 -5 3 -17 12 -27 16 -16 16 -16 -4 -10 -19 6 -22 2 -28 -46 -16
-123 -55 -232 -105 -288 -12 -14 -28 -34 -36 -45 -13 -19 -15 -18 -48 14 l-34
33 28 28 c95 97 148 228 154 376 0 21 5 45 9 52 9 14 21 17 12 3z m3202 -63
c-3 -8 -6 -5 -6 6 -1 11 2 17 5 13 3 -3 4 -12 1 -19z m101 -38 c23 -12 42 -28
42 -36 0 -21 -14 -17 -75 17 -38 22 -55 37 -55 51 0 19 1 19 23 5 12 -9 41
-26 65 -37z m-1588 -7 c0 -36 -3 -44 -11 -33 -8 13 -12 11 -26 -10 -32 -47
-172 -176 -221 -203 -53 -29 -191 -77 -220 -77 -10 0 -23 -5 -30 -12 -15 -15
-15 -10 -1 31 8 21 18 31 32 32 127 4 327 122 406 239 24 35 62 80 68 80 2 0
3 -21 3 -47z m-480 27 c0 -5 -4 -10 -10 -10 -5 0 -10 5 -10 10 0 6 5 10 10 10
6 0 10 -4 10 -10z m-664 -95 c-2 -7 -38 -30 -80 -51 -49 -25 -77 -46 -79 -59
-2 -11 -5 5 -6 36 l-1 57 43 20 c23 11 58 32 77 45 l35 25 8 -30 c5 -17 6 -36
3 -43z m654 36 c0 -6 -4 -13 -10 -16 -5 -3 -10 1 -10 9 0 9 5 16 10 16 6 0 10
-4 10 -9z m-1750 -21 c6 -11 8 -20 6 -20 -3 0 -10 9 -16 20 -6 11 -8 20 -6 20
3 0 10 -9 16 -20z m1515 -116 c-12 -54 -28 -112 -34 -129 -16 -39 -70 -125
-93 -148 -17 -17 -18 -17 -18 9 0 14 14 43 30 64 44 55 79 142 93 227 8 52 15
72 24 68 10 -3 12 3 8 23 -5 22 -4 24 4 6 6 -14 2 -51 -14 -120z m2278 111
c20 -10 37 -23 37 -27 0 -10 -10 -5 -52 24 -20 14 -28 15 -31 6 -3 -8 -6 -5
-6 5 -1 10 2 17 7 15 4 -2 24 -12 45 -23z m-1540 -5 c-3 -12 -8 -19 -11 -16
-5 6 5 36 12 36 2 0 2 -9 -1 -20z m-2204 -32 c-7 -13 -6 -18 2 -18 7 0 10 -2
7 -5 -10 -11 -34 6 -35 25 -1 12 4 18 17 17 15 -1 16 -5 9 -19z m3736 0 c7 -7
3 -8 -12 -3 -13 3 -23 2 -23 -2 0 -18 42 -54 57 -49 8 3 17 6 20 6 4 0 -2 10
-13 22 -10 12 -13 18 -6 14 7 -4 19 -2 27 4 11 9 15 9 15 1 0 -6 -5 -11 -11
-11 -5 0 -8 -4 -4 -9 6 -11 -14 -60 -33 -80 -11 -11 -12 -9 -8 13 3 19 -1 29
-17 38 -28 15 -46 38 -47 61 0 14 5 17 23 12 12 -4 27 -12 32 -17z m-2201 -30
c65 -82 76 -101 85 -157 3 -14 31 38 32 59 1 17 3 20 6 7 2 -9 9 -15 14 -12
15 10 10 -12 -7 -29 -9 -9 -15 -30 -13 -49 1 -17 -2 -40 -6 -50 -4 -10 -5 -33
-2 -52 3 -19 2 -35 -4 -35 -5 0 -9 -18 -9 -40 0 -22 -4 -40 -10 -40 -5 0 -10
9 -10 21 0 11 -4 18 -9 14 -5 -3 -13 0 -17 6 -4 8 -3 9 4 5 7 -4 12 -1 12 8 0
9 -8 16 -17 16 -14 0 -15 2 -5 9 14 8 7 61 -8 61 -5 0 -6 10 -2 22 4 17 2 20
-13 14 -15 -5 -16 -4 -5 9 7 9 10 18 6 22 -12 12 -33 -30 -44 -90 -6 -33 -24
-87 -40 -121 -33 -69 -118 -179 -133 -171 -18 12 -8 42 26 75 19 18 32 36 30
41 -3 4 1 9 9 12 12 5 73 119 82 152 8 31 16 64 21 95 4 19 13 41 22 48 11 9
12 15 5 18 -7 3 -9 14 -6 26 4 16 2 19 -8 13 -9 -5 -11 -4 -6 3 4 6 0 35 -9
64 -18 61 -17 58 -6 58 5 0 21 -15 35 -32z m-1519 -18 c-3 -5 -2 -10 3 -10 10
0 32 -44 32 -63 -1 -13 -50 62 -50 76 0 4 5 7 11 7 5 0 7 -4 4 -10z m-2684
-33 c12 -22 12 -22 -10 -3 -11 11 -21 23 -21 28 0 14 19 -1 31 -25z m4359 14
c0 -5 -7 -14 -15 -21 -13 -10 -15 -9 -15 9 0 12 6 21 15 21 8 0 15 -4 15 -9z
m2024 3 c9 -3 16 -10 16 -15 0 -4 -7 -6 -15 -3 -8 3 -22 -1 -31 -11 -23 -23
-30 -11 -7 13 22 25 18 23 37 16z m-2640 -20 c18 -48 -6 -71 -113 -104 -26 -8
-46 -22 -51 -34 -7 -18 -9 -16 -9 11 -1 42 15 83 32 83 8 0 38 13 68 29 64 35
65 36 73 15z m-469 -34 c3 -11 11 -20 16 -20 6 0 8 -4 5 -9 -4 -5 5 -23 19
-39 26 -32 32 -52 14 -52 -6 0 -9 5 -7 12 4 11 -25 48 -37 48 -3 0 -5 -15 -5
-32 -1 -72 -65 -258 -89 -258 -4 0 -22 12 -40 28 l-33 27 35 35 c39 39 73 130
83 223 7 58 26 77 39 37z m282 -82 c-2 -13 -4 -5 -4 17 -1 22 1 32 4 23 2 -10
2 -28 0 -40z m-635 -53 c117 -110 342 -296 428 -355 30 -21 33 -21 17 -3 -14
16 -15 26 -8 46 6 14 13 50 16 79 7 57 20 82 30 55 4 -9 13 -13 20 -11 19 8
29 -14 14 -32 -10 -12 -9 -13 7 -7 16 6 17 5 6 -9 -10 -13 -10 -19 3 -31 8 -9
15 -20 14 -24 -4 -24 2 -35 17 -29 14 5 15 4 5 -8 -15 -18 -3 -49 17 -41 12 4
12 3 3 -8 -6 -9 -8 -27 -4 -47 5 -27 3 -32 -8 -26 -8 4 -3 -2 11 -13 32 -26
44 -27 30 -2 -7 13 -7 22 0 26 9 6 14 -8 11 -27 0 -5 5 -8 12 -8 8 0 8 -3 -2
-9 -11 -7 -7 -14 19 -29 18 -11 39 -18 46 -15 18 7 18 19 -1 27 -16 6 -21 36
-5 36 5 0 7 -7 4 -15 -8 -19 5 -20 20 -1 6 8 36 17 66 20 30 4 83 20 117 35
34 16 64 27 67 23 26 -25 -31 -57 -155 -88 -63 -16 -142 -54 -112 -54 6 0 41
-20 79 -45 39 -26 80 -45 95 -45 15 0 54 13 85 30 60 31 67 30 79 -8 6 -19 0
-25 -42 -44 -26 -12 -61 -21 -77 -19 -31 3 -228 120 -386 229 -283 194 -621
481 -619 525 0 21 1 21 8 2 5 -11 37 -47 73 -80z m3476 60 c-3 -3 -9 2 -12 12
-6 14 -5 15 5 6 7 -7 10 -15 7 -18z m-106 -27 c-8 -8 -9 -4 -5 13 4 13 8 18
11 10 2 -7 -1 -18 -6 -23z m45 -10 c-3 -8 -6 -5 -6 6 -1 11 2 17 5 13 3 -3 4
-12 1 -19z m-22 -8 c3 -5 1 -10 -4 -10 -6 0 -11 5 -11 10 0 6 2 10 4 10 3 0 8
-4 11 -10z m-2950 -39 c-6 -5 -25 10 -25 20 0 5 6 4 14 -3 8 -7 12 -15 11 -17z
m427 -5 c4 -22 -2 -28 -51 -49 -31 -13 -72 -28 -91 -32 -19 -4 -41 -12 -47
-17 -10 -8 -13 -4 -13 15 0 15 6 31 13 37 15 14 170 77 178 73 4 -1 9 -14 11
-27z m2488 -26 c-4 -3 -10 -14 -13 -24 -4 -10 -10 -16 -13 -13 -3 3 -1 14 5
25 6 12 11 31 12 44 1 23 1 23 8 -2 4 -14 5 -27 1 -30z m-1944 3 c-10 -10 -19
5 -10 18 6 11 8 11 12 0 2 -7 1 -15 -2 -18z m-757 -43 c1 -13 0 -13 -9 0 -5 8
-9 24 -9 35 l0 20 9 -20 c5 -11 9 -27 9 -35z m-155 -56 c4 -10 1 -14 -6 -12
-15 5 -23 28 -10 28 5 0 13 -7 16 -16z m836 -31 c0 -10 7 -30 14 -45 8 -16 11
-28 5 -28 -5 0 -9 5 -9 12 0 23 -18 -7 -35 -60 -27 -84 -130 -252 -154 -252
-5 0 -14 12 -19 28 -8 24 -4 32 37 78 25 29 51 58 57 66 18 22 71 148 79 186
7 34 25 44 25 15z m-420 -32 c0 -27 -32 -44 -132 -72 -79 -21 -88 -26 -88 -47
0 -13 -4 -20 -10 -17 -6 3 -7 -1 -4 -9 3 -9 1 -16 -5 -16 -14 0 -15 37 -1 45
6 3 10 16 10 29 0 19 10 25 63 41 34 10 82 28 107 41 55 28 60 29 60 5z m-250
-48 c-11 -17 -11 -17 -6 0 3 10 7 26 7 35 1 15 2 15 6 0 2 -10 -1 -25 -7 -35z
m727 15 c-3 -8 -6 -5 -6 6 -1 11 2 17 5 13 3 -3 4 -12 1 -19z m-12 -38 c-3 -5
-11 -10 -16 -10 -6 0 -7 5 -4 10 3 6 11 10 16 10 6 0 7 -4 4 -10z m5 -51 c0
-6 -4 -7 -10 -4 -5 3 -10 11 -10 16 0 6 5 7 10 4 6 -3 10 -11 10 -16z m-776
-64 c3 -8 1 -15 -4 -15 -6 0 -10 7 -10 15 0 8 2 15 4 15 2 0 6 -7 10 -15z m82
-10 c-3 -8 -1 -15 4 -15 6 0 10 -4 10 -10 0 -5 -7 -10 -15 -10 -15 0 -21 31
-8 43 11 12 15 8 9 -8z"/>
<path d="M11173 4145 c0 -33 2 -45 4 -27 2 18 2 45 0 60 -2 15 -4 0 -4 -33z"/>
<path d="M11146 3901 c-4 -46 -5 -86 -2 -88 6 -6 19 143 14 159 -3 7 -8 -25
-12 -71z"/>
<path d="M11262 3890 c-6 -182 -61 -513 -133 -798 -27 -106 -49 -195 -49 -197
0 -2 9 -1 19 2 16 4 18 10 12 27 -6 14 2 63 25 151 30 116 71 303 89 408 4 25
10 35 18 30 7 -4 6 1 -2 11 -11 12 -11 20 -3 28 13 13 23 -5 26 -46 0 -14 6
-22 14 -19 9 4 12 -9 12 -48 -1 -30 4 -124 9 -209 l9 -155 -4 219 c-5 238 -11
309 -26 299 -6 -3 -14 1 -19 8 -14 23 -10 30 11 19 17 -9 20 -8 20 12 0 14 -3
19 -8 11 -4 -7 -13 -9 -20 -4 -10 6 -11 30 -2 117 7 60 10 127 8 149 -4 35 -5
32 -6 -15z"/>
<path d="M11132 3770 c0 -19 2 -27 5 -17 2 9 2 25 0 35 -3 9 -5 1 -5 -18z"/>
<path d="M11120 3704 c0 -11 -5 -25 -12 -32 -9 -9 -9 -12 0 -12 13 0 28 47 18
57 -3 4 -6 -3 -6 -13z"/>
<path d="M11072 3618 c-11 -13 -24 -36 -27 -53 l-7 -30 35 38 c20 20 39 37 42
37 6 0 -4 -69 -12 -83 -3 -5 -6 -34 -8 -65 l-3 -57 14 65 c7 36 16 89 19 118
7 47 6 52 -12 52 -11 0 -29 -10 -41 -22z"/>
<path d="M11027 3483 c-3 -16 -2 -31 1 -35 4 -4 8 9 9 28 3 41 -3 45 -10 7z"/>
<path d="M10991 3434 c0 -11 3 -14 6 -6 3 7 2 16 -1 19 -3 4 -6 -2 -5 -13z"/>
<path d="M11082 3380 c0 -14 2 -19 5 -12 2 6 2 18 0 25 -3 6 -5 1 -5 -13z"/>
<path d="M12261 3364 c0 -11 3 -14 6 -6 3 7 2 16 -1 19 -3 4 -6 -2 -5 -13z"/>
<path d="M11051 3248 c-12 -55 -38 -157 -57 -226 -19 -69 -33 -130 -31 -136 4
-11 76 255 102 377 10 43 15 80 13 82 -2 3 -14 -41 -27 -97z"/>
<path d="M12273 3240 c0 -25 2 -35 4 -22 2 12 2 32 0 45 -2 12 -4 2 -4 -23z"/>
<path d="M8899 3223 c-13 -16 -12 -17 4 -4 16 13 21 21 13 21 -2 0 -10 -8 -17
-17z"/>
<path d="M12260 3134 c0 -86 -29 -266 -65 -409 -30 -117 -33 -137 -25 -200 l8
-70 0 85 c-1 62 6 111 25 180 44 161 87 470 65 470 -5 0 -8 -25 -8 -56z"/>
<path d="M10900 3123 c0 -5 4 -13 9 -18 5 -6 11 -19 14 -30 4 -18 5 -17 6 3 0
13 -6 30 -14 38 -8 9 -15 12 -15 7z"/>
<path d="M11236 2863 c-20 -32 -36 -64 -36 -70 0 -7 -4 -13 -9 -13 -5 0 -16
-17 -24 -37 -9 -21 -16 -31 -17 -23 0 13 -1 13 -10 0 -7 -11 -10 -6 -10 20 0
19 -2 49 -4 65 -2 17 -5 38 -5 48 -1 9 -5 17 -9 17 -5 0 -5 -33 -1 -72 4 -40
10 -102 12 -138 l4 -64 -23 28 -24 27 -1 -28 c0 -15 0 -113 1 -218 1 -201 -15
-387 -51 -574 -11 -57 -18 -105 -16 -108 3 -2 8 11 12 29 16 79 27 108 40 108
15 0 57 69 86 144 30 75 76 261 104 424 14 81 28 159 31 175 14 70 -40 -3 -76
-101 -12 -34 -27 -62 -31 -62 -5 0 -9 3 -9 8 0 4 -7 50 -15 102 -14 92 -19
168 -8 143 9 -23 21 -14 33 22 16 47 59 124 87 155 23 25 30 50 14 50 -4 0
-24 -26 -45 -57z"/>
<path d="M10806 2815 c-9 -26 -7 -32 5 -12 6 10 9 21 6 23 -2 3 -7 -2 -11 -11z"/>
<path d="M9282 2545 c0 -16 2 -22 5 -12 2 9 2 23 0 30 -3 6 -5 -1 -5 -18z"/>
<path d="M10820 2564 c0 -6 -16 -36 -35 -68 -19 -32 -29 -53 -22 -47 20 16 70
111 63 118 -3 4 -6 2 -6 -3z"/>
<path d="M9272 2475 c0 -16 2 -22 5 -12 2 9 2 23 0 30 -3 6 -5 -1 -5 -18z"/>
<path d="M9255 2375 c-3 -31 -5 -59 -2 -61 3 -3 8 20 12 51 3 31 5 59 2 61 -3
3 -8 -20 -12 -51z"/>
<path d="M10715 2384 c-9 -15 -12 -23 -6 -20 11 7 35 46 28 46 -3 0 -12 -12
-22 -26z"/>
<path d="M12163 2345 c0 -33 2 -45 4 -27 2 18 2 45 0 60 -2 15 -4 0 -4 -33z"/>
<path d="M10632 2322 c-18 -37 -32 -73 -32 -81 0 -21 -23 -7 -48 30 -13 19
-26 33 -29 32 -2 -1 -35 -46 -72 -100 -75 -110 -222 -313 -346 -477 -79 -106
-81 -109 -71 -143 l11 -35 128 134 c70 73 169 185 220 248 98 121 284 371 293
393 2 7 -1 25 -9 40 l-14 26 -31 -67z m-102 -57 c0 -9 11 -27 25 -41 26 -26
30 -34 18 -34 -30 2 -83 90 -54 90 6 0 11 -7 11 -15z"/>
<path d="M10545 2344 c-9 -15 -12 -23 -6 -20 11 7 35 46 28 46 -3 0 -12 -12
-22 -26z"/>
<path d="M11293 2310 c0 -36 2 -50 4 -32 2 17 2 47 0 65 -2 17 -4 3 -4 -33z"/>
<path d="M9236 2249 c-4 -28 -5 -53 -3 -56 3 -2 8 19 12 47 4 28 5 53 2 56 -2
3 -7 -19 -11 -47z"/>
<path d="M12153 2245 c0 -22 2 -30 4 -17 2 12 2 30 0 40 -3 9 -5 -1 -4 -23z"/>
<path d="M11283 2175 c0 -27 2 -38 4 -22 2 15 2 37 0 50 -2 12 -4 0 -4 -28z"/>
<path d="M12142 2175 c0 -16 2 -22 5 -12 2 9 2 23 0 30 -3 6 -5 -1 -5 -18z"/>
<path d="M9222 2155 c0 -16 2 -22 5 -12 2 9 2 23 0 30 -3 6 -5 -1 -5 -18z"/>
<path d="M12132 2110 c0 -14 2 -19 5 -12 2 6 2 18 0 25 -3 6 -5 1 -5 -13z"/>
<path d="M9171 1907 c-50 -243 -56 -277 -40 -231 8 24 19 34 42 38 42 9 57 24
57 59 0 28 -1 29 -36 24 -33 -6 -36 -4 -30 16 14 53 57 288 54 297 -1 5 -23
-86 -47 -203z"/>
<path d="M11272 2080 c0 -19 2 -27 5 -17 2 9 2 25 0 35 -3 9 -5 1 -5 -18z"/>
<path d="M12121 2064 c0 -11 3 -14 6 -6 3 7 2 16 -1 19 -3 4 -6 -2 -5 -13z"/>
<path d="M9244 1882 c-7 -5 -6 -15 3 -32 l13 -25 0 33 c0 35 0 35 -16 24z"/>
<path d="M9242 1785 c0 -16 2 -22 5 -12 2 9 2 23 0 30 -3 6 -5 -1 -5 -18z"/>
<path d="M11186 1775 c-9 -26 -7 -32 5 -12 6 10 9 21 6 23 -2 3 -7 -2 -11 -11z"/>
<path d="M9231 1704 c0 -11 3 -14 6 -6 3 7 2 16 -1 19 -3 4 -6 -2 -5 -13z"/>
<path d="M11156 1705 c-9 -26 -7 -32 5 -12 6 10 9 21 6 23 -2 3 -7 -2 -11 -11z"/>
<path d="M11001 1694 c0 -11 3 -14 6 -6 3 7 2 16 -1 19 -3 4 -6 -2 -5 -13z"/>
<path d="M10977 1610 c-10 -34 -16 -65 -13 -67 6 -6 38 106 34 119 -2 6 -12
-17 -21 -52z"/>
<path d="M9073 1477 c-39 -153 -41 -166 -32 -238 9 -82 32 -149 43 -130 4 6
11 9 15 6 14 -8 42 107 30 122 -6 7 -14 50 -16 95 -6 90 12 182 47 251 29 54
24 57 -17 12 l-36 -40 8 43 c13 80 0 41 -42 -121z"/>
<path d="M9211 1564 c0 -11 3 -14 6 -6 3 7 2 16 -1 19 -3 4 -6 -2 -5 -13z"/>
<path d="M9985 1569 c-4 -6 -4 -26 0 -46 6 -31 8 -34 21 -21 10 9 12 24 8 46
-7 33 -18 41 -29 21z"/>
<path d="M9202 1520 c0 -14 2 -19 5 -12 2 6 2 18 0 25 -3 6 -5 1 -5 -13z"/>
<path d="M10951 1523 c-1 -6 -4 -20 -7 -30 -5 -17 -5 -17 6 0 6 10 9 23 6 30
-3 9 -5 9 -5 0z"/>
<path d="M9951 1504 c0 -11 3 -14 6 -6 3 7 2 16 -1 19 -3 4 -6 -2 -5 -13z"/>
<path d="M9956 1465 c-3 -8 -1 -15 3 -15 5 0 11 7 15 15 3 8 1 15 -3 15 -5 0
-11 -7 -15 -15z"/>
<path d="M9909 1465 c-3 -2 -3 -20 -1 -40 4 -31 6 -33 16 -19 19 25 5 79 -15
59z"/>
<path d="M10926 1455 c-9 -26 -7 -32 5 -12 6 10 9 21 6 23 -2 3 -7 -2 -11 -11z"/>
<path d="M9870 1423 c-8 -9 -14 -35 -15 -57 0 -23 -4 -48 -8 -56 -5 -8 3 -1
17 15 19 22 26 41 26 73 0 47 0 47 -20 25z"/>
<path d="M9804 1286 c6 -43 -13 -87 -88 -204 -58 -91 -108 -183 -103 -188 2
-2 17 20 32 48 16 29 55 96 88 148 33 52 68 114 78 137 17 39 17 45 3 70 l-16
28 6 -39z"/>
<path d="M8968 1117 c-31 -100 -55 -183 -53 -185 2 -2 22 54 45 125 22 70 45
135 49 143 9 17 25 100 19 100 -1 0 -29 -82 -60 -183z"/>
<path d="M9492 1246 c-29 -30 -52 -58 -52 -62 0 -4 19 14 41 40 23 26 43 45
45 43 3 -2 -2 -34 -10 -71 -7 -37 -11 -64 -7 -61 6 7 41 158 36 163 -1 1 -25
-22 -53 -52z"/>
<path d="M9091 1084 c0 -11 3 -14 6 -6 3 7 2 16 -1 19 -3 4 -6 -2 -5 -13z"/>
<path d="M9329 1003 c-13 -16 -12 -17 4 -4 16 13 21 21 13 21 -2 0 -10 -8 -17
-17z"/>
<path d="M9225 934 l-30 -26 33 22 c17 12 32 23 32 26 0 7 -4 5 -35 -22z"/>
<path d="M8886 874 c-21 -62 -14 -68 9 -9 9 26 15 48 12 51 -3 3 -12 -16 -21
-42z"/>
<path d="M9040 789 c-35 -31 -35 -31 -3 -9 18 11 35 25 38 30 10 16 2 11 -35
-21z"/>
<path d="M8856 795 c-9 -26 -7 -32 5 -12 6 10 9 21 6 23 -2 3 -7 -2 -11 -11z"/>
<path d="M8836 745 c-9 -26 -7 -32 5 -12 6 10 9 21 6 23 -2 3 -7 -2 -11 -11z"/>
<path d="M8816 695 c-9 -26 -7 -32 5 -12 6 10 9 21 6 23 -2 3 -7 -2 -11 -11z"/>
<path d="M8792 635 c-17 -37 -14 -45 4 -12 9 16 14 31 11 33 -2 2 -9 -7 -15
-21z"/>
<path d="M8790 565 c-9 -10 -16 -12 -20 -5 -3 5 -14 -7 -24 -27 l-18 -38 41
40 c23 21 41 40 41 42 0 7 -8 2 -20 -12z"/>
<path d="M9169 12883 c-13 -16 -12 -17 4 -4 16 13 21 21 13 21 -2 0 -10 -8
-17 -17z"/>
<path d="M9059 12753 l-34 -38 38 34 c34 33 42 41 34 41 -2 0 -19 -17 -38 -37z"/>
<path d="M8989 12693 l-24 -28 28 24 c15 14 27 26 27 28 0 8 -8 1 -31 -24z"/>
<path d="M8694 12484 c-18 -14 -18 -15 4 -4 12 6 22 13 22 15 0 8 -5 6 -26
-11z"/>
<path d="M8614 12434 c-18 -14 -18 -15 4 -4 12 6 22 13 22 15 0 8 -5 6 -26
-11z"/>
<path d="M7678 12093 c7 -3 16 -2 19 1 4 3 -2 6 -13 5 -11 0 -14 -3 -6 -6z"/>
<path d="M7638 12083 c7 -3 16 -2 19 1 4 3 -2 6 -13 5 -11 0 -14 -3 -6 -6z"/>
<path d="M7538 12053 c7 -3 16 -2 19 1 4 3 -2 6 -13 5 -11 0 -14 -3 -6 -6z"/>
<path d="M7498 12043 c7 -3 16 -2 19 1 4 3 -2 6 -13 5 -11 0 -14 -3 -6 -6z"/>
<path d="M7350 12004 l-35 -14 35 6 c40 7 76 24 50 23 -8 0 -31 -7 -50 -15z"/>
<path d="M1551 4634 c0 -11 3 -14 6 -6 3 7 2 16 -1 19 -3 4 -6 -2 -5 -13z"/>
<path d="M2506 4220 c4 -14 15 -43 25 -65 11 -22 16 -29 13 -15 -4 14 -15 43
-25 65 -11 22 -16 29 -13 15z"/>
<path d="M2551 4105 c-1 -15 144 -306 164 -330 9 -11 0 11 -21 50 -21 38 -61
119 -90 180 -29 60 -53 106 -53 100z"/>
<path d="M1671 3784 c0 -11 3 -14 6 -6 3 7 2 16 -1 19 -3 4 -6 -2 -5 -13z"/>
<path d="M1682 3730 c0 -14 2 -19 5 -12 2 6 2 18 0 25 -3 6 -5 1 -5 -13z"/>
<path d="M2739 3735 c5 -11 17 -29 26 -40 l16 -20 -10 20 c-5 11 -17 29 -26
40 l-16 20 10 -20z"/>
<path d="M1692 3680 c0 -14 2 -19 5 -12 2 6 2 18 0 25 -3 6 -5 1 -5 -13z"/>
<path d="M2822 3608 c24 -34 83 -103 132 -152 l88 -91 -81 88 c-44 48 -101
117 -127 153 -25 35 -48 64 -51 64 -2 0 15 -28 39 -62z"/>
<path d="M1702 3620 c0 -14 2 -19 5 -12 2 6 2 18 0 25 -3 6 -5 1 -5 -13z"/>
<path d="M1712 3570 c0 -14 2 -19 5 -12 2 6 2 18 0 25 -3 6 -5 1 -5 -13z"/>
<path d="M1722 3520 c0 -14 2 -19 5 -12 2 6 2 18 0 25 -3 6 -5 1 -5 -13z"/>
<path d="M1732 3470 c0 -14 2 -19 5 -12 2 6 2 18 0 25 -3 6 -5 1 -5 -13z"/>
<path d="M1741 3424 c0 -11 3 -14 6 -6 3 7 2 16 -1 19 -3 4 -6 -2 -5 -13z"/>
<path d="M1751 3392 c-1 -18 52 -229 99 -392 65 -224 196 -597 207 -586 2 2
-16 55 -40 117 -65 168 -139 399 -196 614 -69 261 -69 262 -70 247z"/>
<path d="M3325 3230 c10 -11 20 -20 23 -20 3 0 -3 9 -13 20 -10 11 -20 20 -23
20 -3 0 3 -9 13 -20z"/>
<path d="M2073 2368 c18 -44 56 -115 57 -107 0 10 -61 139 -66 139 -2 0 2 -15
9 -32z"/>
<path d="M2176 2162 c20 -38 45 -80 56 -93 22 -26 19 -21 -54 109 -44 77 -46
64 -2 -16z"/>
<path d="M2267 2010 c9 -17 28 -43 41 -58 13 -15 6 -1 -14 31 -38 59 -58 79
-27 27z"/>
<path d="M2986 1910 c4 -14 13 -38 20 -55 11 -24 13 -25 8 -5 -4 14 -13 39
-20 55 -11 24 -13 25 -8 5z"/>
<path d="M2359 1882 c11 -16 28 -35 38 -43 10 -8 3 5 -16 29 -37 47 -53 58
-22 14z"/>
<path d="M2625 1810 c10 -11 20 -20 23 -20 3 0 -3 9 -13 20 -10 11 -20 20 -23
20 -3 0 3 -9 13 -20z"/>
<path d="M3026 1800 c3 -14 11 -32 16 -40 6 -10 7 -7 2 10 -3 14 -11 32 -16
40 -6 10 -7 7 -2 -10z"/>
<path d="M3050 1735 c0 -5 5 -17 10 -25 5 -8 10 -10 10 -5 0 6 -5 17 -10 25
-5 8 -10 11 -10 5z"/>
<path d="M3070 1685 c0 -5 5 -17 10 -25 5 -8 10 -10 10 -5 0 6 -5 17 -10 25
-5 8 -10 11 -10 5z"/>
<path d="M3106 1600 c8 -30 132 -280 139 -280 3 0 -21 53 -53 118 -32 64 -66
133 -75 152 -11 23 -15 26 -11 10z"/>
<path d="M2720 1546 c0 -2 8 -10 18 -17 15 -13 16 -12 3 4 -13 16 -21 21 -21
13z"/>
<path d="M2800 1477 c0 -2 14 -16 31 -33 22 -20 28 -23 19 -8 -11 18 -50 50
-50 41z"/>
<path d="M2930 1356 c0 -2 8 -10 18 -17 15 -13 16 -12 3 4 -13 16 -21 21 -21
13z"/>
<path d="M3283 1250 c43 -78 88 -192 82 -209 -3 -9 -12 -25 -20 -35 -15 -19
-16 -19 -47 10 -18 16 12 -19 66 -79 55 -59 101 -105 103 -103 5 5 -126 326
-157 386 -10 19 -26 44 -35 55 -9 11 -6 0 8 -25z m160 -370 c3 -11 1 -18 -4
-14 -5 3 -9 12 -9 20 0 20 7 17 13 -6z"/>
<path d="M4012 8845 c0 -16 2 -22 5 -12 2 9 2 23 0 30 -3 6 -5 -1 -5 -18z"/>
<path d="M6310 5773 c1 -15 25 -38 54 -51 27 -12 28 -12 16 3 -19 22 -70 58
-70 48z"/>
<path d="M5156 4802 c-4 -4 -15 -7 -24 -7 -23 0 -113 -164 -119 -218 -3 -26
-15 -53 -31 -69 -21 -23 -23 -30 -12 -43 20 -24 33 -19 84 32 114 112 182 273
127 302 -10 6 -22 7 -25 3z"/>
<path d="M7677 4713 c-4 -3 -37 -8 -75 -10 -37 -3 -89 -11 -117 -19 -60 -18
-133 -32 -235 -45 -41 -5 -86 -11 -100 -13 -61 -8 -240 -128 -240 -161 0 -4
-16 -30 -35 -56 -19 -27 -35 -54 -35 -60 0 -6 -6 -25 -14 -42 -26 -58 -36 -99
-36 -143 0 -34 -4 -44 -16 -44 -13 0 -15 -8 -9 -42 3 -24 8 -63 10 -87 3 -25
12 -53 22 -63 9 -10 13 -18 10 -18 -11 0 16 -65 34 -83 11 -10 19 -26 19 -36
0 -10 13 -34 30 -52 16 -19 30 -37 30 -41 0 -4 20 -29 45 -55 24 -26 45 -51
45 -55 0 -5 5 -8 11 -8 7 0 9 9 6 22 -5 19 -3 18 22 -8 51 -54 99 -90 157
-120 33 -16 61 -32 64 -35 10 -10 75 -34 88 -31 6 2 12 -2 12 -8 0 -6 4 -9 9
-5 6 3 43 -1 83 -9 195 -39 389 -16 552 64 44 22 75 35 68 28 -23 -23 -12 -29
14 -9 15 12 33 21 41 21 8 0 39 19 70 43 30 23 63 47 72 52 21 13 74 65 66 65
-4 0 6 21 21 48 42 73 88 165 91 182 1 8 5 30 8 49 3 19 10 40 15 47 7 8 8 14
1 18 -6 4 -15 -11 -21 -33 -6 -22 -15 -43 -20 -46 -13 -8 -13 27 0 61 7 18 7
30 -1 40 -6 7 -8 18 -4 23 3 6 1 30 -6 53 -6 24 -12 49 -12 56 0 6 -3 12 -7
12 -4 0 -6 10 -5 23 1 12 -2 28 -8 35 -6 7 -12 23 -13 36 -3 31 -75 136 -132
192 -53 54 -159 134 -175 134 -6 0 -20 9 -32 20 -36 34 -193 85 -295 97 -25 3
-50 9 -56 14 -6 5 -14 6 -17 2z"/>
<path d="M3160 3795 c0 -6 19 -30 41 -55 l41 -45 -33 45 c-43 59 -49 66 -49
55z"/>
<path d="M4452 3668 c-28 -28 -12 -46 83 -92 52 -25 95 -50 95 -55 0 -12 117
-85 202 -126 38 -18 92 -36 121 -40 29 -3 95 -13 147 -21 157 -25 307 -32 375
-18 34 7 117 22 185 34 69 11 132 23 141 26 12 3 20 -5 28 -28 12 -33 38 -68
53 -68 16 0 89 74 142 145 52 69 59 73 138 104 140 54 213 94 213 115 0 40
-27 39 -116 -3 -47 -22 -113 -50 -145 -62 -66 -25 -120 -62 -129 -88 -3 -10
-23 -41 -44 -69 l-38 -52 -27 40 c-14 22 -40 47 -57 55 -28 15 -36 15 -95 0
-35 -9 -103 -20 -151 -26 -267 -31 -750 65 -1018 201 -86 45 -86 45 -103 28z"/>
<path d="M1561 3764 c0 -11 3 -14 6 -6 3 7 2 16 -1 19 -3 4 -6 -2 -5 -13z"/>
<path d="M1571 3714 c0 -11 3 -14 6 -6 3 7 2 16 -1 19 -3 4 -6 -2 -5 -13z"/>
<path d="M1582 3650 c0 -14 2 -19 5 -12 2 6 2 18 0 25 -3 6 -5 1 -5 -13z"/>
<path d="M1592 3600 c0 -14 2 -19 5 -12 2 6 2 18 0 25 -3 6 -5 1 -5 -13z"/>
<path d="M1602 3540 c0 -14 2 -19 5 -12 2 6 2 18 0 25 -3 6 -5 1 -5 -13z"/>
<path d="M1612 3490 c0 -14 2 -19 5 -12 2 6 2 18 0 25 -3 6 -5 1 -5 -13z"/>
<path d="M1621 3444 c0 -11 3 -14 6 -6 3 7 2 16 -1 19 -3 4 -6 -2 -5 -13z"/>
<path d="M1631 3404 c0 -11 3 -14 6 -6 3 7 2 16 -1 19 -3 4 -6 -2 -5 -13z"/>
<path d="M1641 3372 c-1 -19 52 -228 56 -217 1 6 -11 60 -26 120 -16 61 -30
104 -30 97z"/>
<path d="M1701 3124 c0 -11 3 -14 6 -6 3 7 2 16 -1 19 -3 4 -6 -2 -5 -13z"/>
<path d="M1711 3093 c-3 -38 148 -492 215 -649 57 -131 49 -94 -12 56 -47 119
-123 343 -183 540 -10 36 -20 60 -20 53z"/>
<path d="M1312 2400 c0 -14 2 -19 5 -12 2 6 2 18 0 25 -3 6 -5 1 -5 -13z"/>
<path d="M1322 2350 c0 -14 2 -19 5 -12 2 6 2 18 0 25 -3 6 -5 1 -5 -13z"/>
<path d="M1331 2294 c0 -11 3 -14 6 -6 3 7 2 16 -1 19 -3 4 -6 -2 -5 -13z"/>
<path d="M1341 2254 c0 -11 3 -14 6 -6 3 7 2 16 -1 19 -3 4 -6 -2 -5 -13z"/>
<path d="M1352 2210 c0 -14 2 -19 5 -12 2 6 2 18 0 25 -3 6 -5 1 -5 -13z"/>
<path d="M1361 2164 c0 -11 3 -14 6 -6 3 7 2 16 -1 19 -3 4 -6 -2 -5 -13z"/>
<path d="M1371 2124 c0 -11 3 -14 6 -6 3 7 2 16 -1 19 -3 4 -6 -2 -5 -13z"/>
<path d="M1381 2090 c0 -8 4 -24 9 -35 5 -13 9 -14 9 -5 0 8 -4 24 -9 35 -5
13 -9 14 -9 5z"/>
<path d="M1401 2014 c0 -11 3 -14 6 -6 3 7 2 16 -1 19 -3 4 -6 -2 -5 -13z"/>
<path d="M1421 1955 c-1 -16 61 -197 66 -192 2 3 -12 49 -31 103 -19 55 -35
95 -35 89z"/>
<path d="M1491 1749 c-2 -12 53 -137 104 -238 62 -124 174 -297 234 -361 l42
-45 -46 59 c-74 93 -138 194 -139 218 -1 13 -7 22 -14 20 -10 -2 -83 138 -165
318 -9 19 -16 32 -16 29z"/>
<path d="M1660 1716 c0 -2 8 -10 18 -17 15 -13 16 -12 3 4 -13 16 -21 21 -21
13z"/>
<path d="M1673 1540 c0 -30 2 -43 4 -27 2 15 2 39 0 55 -2 15 -4 2 -4 -28z"/>
<path d="M2020 1275 c41 -48 51 -58 55 -53 3 2 -14 22 -38 44 -27 26 -33 29
-17 9z"/>
<path d="M2121 1180 c0 -8 4 -24 9 -35 5 -13 9 -14 9 -5 0 8 -4 24 -9 35 -5
13 -9 14 -9 5z"/>
<path d="M2130 1111 c0 -6 5 -13 10 -16 6 -3 10 1 10 9 0 9 -4 16 -10 16 -5 0
-10 -4 -10 -9z"/>
<path d="M2200 1109 c0 -24 38 -152 54 -184 9 -17 16 -33 16 -37 0 -11 -59
-10 -99 2 -43 12 -70 0 -40 -18 12 -8 18 -9 14 -3 -3 6 -2 11 2 11 14 0 54
-31 49 -38 -2 -4 18 -5 45 -4 65 5 72 19 48 107 -10 39 -18 80 -18 91 -1 12
-7 26 -14 33 -11 9 -11 -1 0 -55 7 -36 20 -82 28 -101 9 -20 14 -38 12 -40 -2
-2 -16 24 -31 57 -23 54 -30 82 -40 153 -3 23 -26 47 -26 26z"/>
<path d="M2366 964 c-3 -8 -5 -25 -5 -37 1 -17 3 -16 10 8 6 23 7 18 4 -22 -2
-30 0 -53 5 -53 6 0 10 6 11 13 1 6 3 29 4 49 4 40 -18 72 -29 42z"/>
<path d="M2474 902 c4 -7 2 -12 -3 -12 -7 0 -11 -23 -11 -55 0 -54 13 -73 25
-36 8 28 3 101 -9 108 -5 3 -6 1 -2 -5z"/>
<path d="M2540 856 c8 -12 24 -32 36 -46 20 -23 22 -32 15 -93 -8 -76 -6 -79
59 -91 29 -5 31 -4 12 4 -22 9 -22 11 -6 35 9 14 19 25 22 25 3 0 19 -12 36
-27 17 -16 -3 10 -44 55 -100 112 -148 163 -130 138z"/>
<path d="M2253 823 c9 -2 25 -2 35 0 9 3 1 5 -18 5 -19 0 -27 -2 -17 -5z"/>
<path d="M2390 810 c0 -28 12 -60 22 -60 6 0 7 11 3 28 -7 31 -25 54 -25 32z"/>
<path d="M2315 780 c-18 -8 -17 -9 7 -9 15 -1 30 4 33 9 7 12 -12 12 -40 0z"/>
<path d="M2477 743 c-13 -12 -7 -43 8 -43 9 0 15 9 15 25 0 24 -10 32 -23 18z"/>
<path d="M2760 626 c0 -2 8 -10 18 -17 15 -13 16 -12 3 4 -13 16 -21 21 -21
13z"/>
<path d="M3223 3554 c41 -81 140 -224 202 -289 l57 -60 -49 60 c-73 89 -125
165 -107 158 9 -3 20 -17 25 -30 8 -21 12 -23 24 -13 12 10 27 1 88 -53 41
-36 74 -73 74 -81 0 -8 10 -30 23 -49 18 -27 33 -36 61 -40 40 -5 52 -13 304
-217 l150 -121 48 -117 47 -117 -15 -80 c-32 -175 -59 -470 -40 -453 4 4 11
74 15 155 4 81 18 198 30 260 l23 112 -36 88 c-20 48 -39 100 -42 114 -8 33
-20 43 -220 204 -192 155 -408 341 -529 459 -96 93 -121 111 -61 45 28 -31 34
-43 24 -50 -14 -8 -57 52 -64 93 -3 12 -16 34 -31 48 l-26 25 25 -51z m384
-360 c-3 -3 -12 -4 -19 -1 -8 3 -5 6 6 6 11 1 17 -2 13 -5z"/>
<path d="M3170 3175 c0 -7 81 -47 86 -43 2 3 -17 14 -41 26 -25 12 -45 20 -45
17z"/>
<path d="M3398 3093 c7 -3 16 -2 19 1 4 3 -2 6 -13 5 -11 0 -14 -3 -6 -6z"/>
<path d="M3460 3080 c19 -5 71 -11 115 -14 l80 -5 -100 14 c-111 15 -148 17
-95 5z"/>
<path d="M4113 1875 c0 -38 2 -53 4 -32 2 20 2 52 0 70 -2 17 -4 1 -4 -38z"/>
<path d="M4123 1755 c0 -22 2 -30 4 -17 2 12 2 30 0 40 -3 9 -5 -1 -4 -23z"/>
<path d="M4135 1665 c10 -71 52 -248 77 -325 24 -76 59 -148 99 -206 15 -23
26 -44 23 -46 -3 -3 2 -8 11 -11 21 -9 20 -6 -26 63 -75 114 -115 225 -153
433 -23 125 -46 191 -31 92z"/>
<path d="M4240 2694 c0 -17 120 -237 175 -318 157 -236 444 -576 671 -796 81
-78 75 -71 -32 40 -283 296 -460 509 -621 747 -74 110 -169 280 -161 288 7 7
274 -231 400 -357 143 -143 193 -182 243 -193 20 -5 13 2 -23 19 -38 18 -102
73 -220 188 -154 150 -432 396 -432 382z"/>
<path d="M6650 1650 c0 -5 5 -10 10 -10 6 0 10 5 10 10 0 6 -4 10 -10 10 -5 0
-10 -4 -10 -10z"/>
<path d="M5840 1217 c0 -2 21 -18 48 -36 35 -25 40 -26 17 -6 -30 26 -65 49
-65 42z"/>
</g>
</svg>
